<?xml version="1.0" standalone="no"?>
<!DOCTYPE svg PUBLIC "-//W3C//DTD SVG 20010904//EN"
 "http://www.w3.org/TR/2001/REC-SVG-20010904/DTD/svg10.dtd">
<svg version="1.0" xmlns="http://www.w3.org/2000/svg"
 width="768.000000pt" height="768.000000pt" viewBox="0 0 768.000000 768.000000"
 preserveAspectRatio="xMidYMid meet">

<g transform="translate(0.000000,768.000000) scale(0.100000,-0.100000)"
fill="#000000" stroke="none">
<path d="M3765 7205 c-38 -30 -92 -65 -119 -79 -28 -14 -46 -26 -42 -26 5 0
-8 -13 -29 -30 -21 -16 -44 -30 -51 -30 -7 0 -14 -4 -16 -8 -4 -9 -93 -72
-103 -72 -4 0 -39 -19 -78 -42 -103 -61 -146 -82 -154 -75 -3 4 1 7 10 7 9 0
19 5 23 12 5 8 2 9 -9 5 -11 -4 -17 -1 -17 7 0 12 -48 -7 -100 -39 -8 -5 -17
-10 -20 -11 -10 -2 -45 -15 -75 -29 -16 -7 -70 -29 -120 -48 -49 -20 -146 -59
-215 -87 -289 -119 -820 -280 -1370 -415 -331 -82 -357 -90 -369 -114 -11 -21
4 -880 18 -1031 6 -63 16 -146 21 -185 9 -66 33 -257 65 -530 47 -390 52 -420
130 -747 102 -430 346 -991 604 -1388 233 -360 583 -761 881 -1009 276 -231
424 -339 740 -543 201 -130 454 -278 475 -278 35 0 437 234 645 376 185 126
453 329 585 444 54 47 302 295 345 345 19 22 62 72 96 110 84 97 240 306 339
455 293 442 519 969 624 1455 90 422 137 721 165 1055 35 410 46 608 51 870 3
151 7 321 10 377 5 97 -6 160 -25 148 -4 -2 -13 7 -20 20 -7 14 -20 27 -29 30
-9 2 -115 30 -236 60 -121 31 -305 86 -410 121 -104 36 -212 73 -238 82 -36
12 -54 14 -75 6 -28 -11 -51 -4 -342 106 -41 15 -119 44 -172 64 -253 93 -583
248 -827 388 -46 26 -85 48 -87 48 -12 0 -289 191 -336 231 -31 27 -60 49 -65
48 -4 0 -39 -24 -78 -54z m173 -39 c335 -254 756 -469 1347 -691 143 -54 305
-117 360 -140 55 -23 139 -55 187 -71 83 -27 88 -27 106 -10 19 16 24 16 113
-13 132 -42 210 -64 399 -111 107 -27 172 -49 185 -61 20 -20 20 -20 -15 -5
-19 8 -132 39 -250 70 -118 31 -257 71 -309 88 -76 26 -97 29 -112 20 -10 -7
-27 -12 -37 -12 -24 0 -138 40 -272 95 -58 24 -143 57 -190 74 -457 164 -792
308 -1039 448 -51 29 -95 53 -97 53 -6 0 -179 106 -255 157 -151 99 -253 151
-264 133 -10 -16 -321 -229 -423 -289 -99 -59 -274 -150 -260 -136 3 4 64 38
135 77 142 77 435 270 528 347 33 27 61 50 63 50 1 1 46 -32 100 -73z m-90
-1001 c-1 -293 -5 -497 -10 -480 -4 17 -7 298 -5 625 1 351 5 548 9 480 4 -63
6 -344 6 -625z m-74 669 c9 -3 16 -17 16 -30 l0 -23 -25 23 c-35 33 -31 45 9
30z m33 -101 c-2 -21 -4 -6 -4 32 0 39 2 55 4 38 2 -18 2 -50 0 -70z m-283
-48 c-59 -63 -115 -117 -123 -120 -9 -3 38 48 104 115 66 66 121 120 123 120
2 0 -45 -52 -104 -115z m236 90 c26 -31 -13 -81 -47 -59 -45 28 -42 74 5 74
16 0 35 -7 42 -15z m-210 1 c0 -2 -8 -10 -17 -17 -16 -13 -17 -12 -4 4 13 16
21 21 21 13z m100 -51 c-7 -8 -17 -15 -23 -15 -5 0 -2 9 8 20 21 23 35 19 15
-5z m10 -34 c-6 -12 -15 -21 -20 -21 -5 0 -10 -10 -12 -22 -2 -13 -15 -29 -31
-36 -16 -8 -31 -21 -34 -30 -4 -10 -41 -55 -83 -102 -42 -47 -93 -106 -114
-132 -34 -42 -43 -48 -76 -48 -35 0 -66 -19 -55 -33 3 -4 2 -5 -2 -2 -4 3 -27
-15 -53 -40 -45 -44 -111 -85 -138 -85 -7 0 -10 -4 -7 -10 3 -5 -1 -10 -9 -10
-9 0 -16 7 -16 15 0 8 9 15 20 15 11 0 23 7 26 15 4 8 10 12 15 9 15 -9 70 28
123 84 42 44 55 52 86 52 24 0 42 6 51 18 11 14 11 15 -1 5 -30 -28 -30 -11 1
30 54 71 101 116 114 111 7 -3 16 0 21 7 4 8 3 10 -4 5 -7 -4 -12 -2 -12 4 0
7 7 10 15 6 9 -3 15 1 15 11 0 14 181 213 188 207 2 -1 -1 -12 -8 -23z m130 9
c0 -14 -35 -30 -67 -30 -22 0 -25 -2 -13 -10 8 -5 11 -10 5 -10 -5 0 -16 4
-24 9 -22 14 -3 31 34 31 19 0 37 5 40 10 8 13 25 13 25 0z m-184 -27 c-10
-10 -19 5 -10 18 6 11 8 11 12 0 2 -7 1 -15 -2 -18z m204 -3 c0 -11 -4 -20 -9
-20 -5 0 -7 9 -4 20 3 11 7 20 9 20 2 0 4 -9 4 -20z m-300 -37 c-98 -115 -332
-350 -378 -379 -78 -50 -278 -148 -358 -175 -48 -16 -77 -33 -93 -54 -36 -44
-139 -145 -191 -186 -71 -57 -101 -67 -40 -13 30 26 100 92 155 146 80 78 114
103 163 123 217 88 440 213 425 238 -3 6 -1 7 5 3 7 -4 12 -1 12 7 0 18 54 69
64 60 4 -5 6 -1 4 7 -2 8 3 14 10 12 8 -1 11 2 8 7 -6 10 49 61 65 61 6 0 7 5
3 12 -4 6 -3 8 3 5 6 -4 46 31 88 78 79 86 114 116 55 48z m61 20 c-11 -21
-49 -63 -57 -63 -3 0 9 18 26 40 33 42 47 52 31 23z m-221 -27 c0 -2 -7 -7
-16 -10 -8 -3 -12 -2 -9 4 6 10 25 14 25 6z m340 -12 c0 -8 -4 -13 -9 -10 -8
5 -39 -23 -33 -31 1 -1 0 -2 -1 0 -7 5 -37 -26 -32 -33 6 -9 -26 -37 -33 -30
-3 3 -6 -3 -8 -13 -4 -28 -24 -47 -41 -40 -12 5 -14 3 -8 -7 5 -9 4 -11 -3 -6
-8 4 -12 0 -12 -11 0 -10 -24 -43 -53 -74 -28 -30 -71 -76 -95 -102 -29 -32
-50 -47 -68 -47 -13 0 -37 -8 -52 -17 l-27 -17 24 27 c15 16 35 27 50 27 18 0
44 19 88 62 35 34 63 68 63 75 0 6 8 18 18 25 10 7 26 24 35 38 16 24 187 200
194 200 1 0 3 -7 3 -16z m60 -14 c0 -5 -4 -10 -10 -10 -5 0 -10 5 -10 10 0 6
5 10 10 10 6 0 10 -4 10 -10z m-470 -67 c0 -7 -39 17 -46 28 -3 6 5 3 20 -6
14 -10 26 -19 26 -22z m418 26 c-31 -17 -20 -46 32 -87 28 -23 56 -43 63 -45
7 -2 9 -8 5 -12 -13 -14 -138 84 -138 108 0 14 31 47 44 47 6 0 3 -5 -6 -11z
m457 -9 c22 -24 22 -73 1 -105 -24 -36 -23 -253 1 -270 15 -11 15 -14 -5 -40
-18 -22 -22 -41 -22 -96 0 -60 3 -70 22 -80 12 -6 43 -32 70 -57 l48 -45 -2
-231 c-2 -217 -2 -223 -9 -101 -4 72 -10 166 -14 209 l-8 80 -78 79 -79 78 0
78 c0 58 4 82 15 91 12 10 15 38 15 130 0 127 -4 150 -27 150 -24 0 -63 47
-63 76 0 64 93 101 135 54z m-955 -37 c12 -15 34 -36 48 -45 17 -11 21 -18 12
-18 -9 0 -36 20 -60 45 -24 25 -39 45 -33 45 6 0 21 -12 33 -27z m55 -11 c-3
-3 -11 0 -18 7 -9 10 -8 11 6 5 10 -3 15 -9 12 -12z m545 -7 c0 -22 -3 -24
-19 -15 -25 13 -38 32 -17 24 9 -3 16 -1 16 5 0 6 5 11 10 11 6 0 10 -11 10
-25z m-115 -44 c3 -5 -2 -11 -11 -13 -10 -2 10 -20 53 -47 37 -25 70 -46 72
-48 2 -2 1 -6 -2 -9 -4 -4 -30 11 -59 34 -64 48 -87 54 -111 27 -10 -11 -6 -1
10 22 29 44 38 50 48 34z m630 -41 c3 -6 3 -19 0 -30 -6 -19 -7 -19 -27 -1
-21 20 -17 41 7 41 8 0 17 -5 20 -10z m74 1 c10 -6 11 -21 6 -61 -5 -34 -10
-48 -15 -39 -5 7 -6 26 -3 41 5 23 2 28 -15 28 -26 0 -39 19 -21 31 18 11 30
11 48 0z m-859 -34 c0 -2 -10 -12 -22 -23 l-23 -19 19 23 c18 21 26 27 26 19z
m150 -7 c0 -5 4 -9 8 -7 11 3 122 -74 122 -85 0 -11 -5 -8 -83 45 -47 32 -60
37 -72 27 -18 -15 -20 -5 -2 15 14 17 27 19 27 5z m1011 -19 c16 -16 29 -39
29 -51 0 -28 -52 -80 -80 -80 -30 0 -80 53 -80 85 0 33 42 75 75 75 16 0 38
-12 56 -29z m-1786 -33 c32 -44 33 -49 10 -28 -25 23 -61 80 -51 80 2 0 21
-24 41 -52z m94 10 c25 -15 53 -28 63 -28 10 0 18 -5 18 -11 0 -6 -9 -8 -22
-4 -23 7 -128 74 -128 82 0 5 4 3 69 -39z m2828 -10 c94 -34 120 -48 89 -48
-30 0 -236 72 -236 82 0 14 40 5 147 -34z m-1520 -34 c-9 -9 -28 6 -21 18 4 6
10 6 17 -1 6 -6 8 -13 4 -17z m-1726 -45 c17 -12 42 -25 57 -29 19 -6 21 -9 8
-9 -11 -1 -39 10 -62 24 -31 18 -52 24 -71 19 -22 -4 -25 -3 -13 5 23 16 49
13 81 -10z m439 14 c-8 -3 -23 -10 -32 -15 -13 -6 -18 -5 -18 7 0 10 10 15 33
14 17 0 25 -3 17 -6z m1342 -19 c9 -3 15 -10 12 -17 -3 -8 -28 -11 -83 -9 -64
3 -79 6 -74 17 3 10 23 14 66 14 34 0 70 -2 79 -5z m671 -58 c-5 -57 -4 -64
16 -78 31 -22 40 -104 15 -136 -22 -26 -36 -28 -252 -30 l-143 -2 3 -32 3 -33
145 0 145 0 3 33 c4 43 22 41 22 -3 l0 -35 49 0 c42 0 49 -3 55 -22 9 -37 7
-498 -3 -498 -17 0 -20 33 -21 235 -1 113 -6 207 -10 210 -6 4 -11 -65 -13
-162 l-3 -168 -2 171 -2 171 -46 7 c-26 3 -137 6 -247 6 -110 0 -197 3 -194 7
4 4 -7 14 -25 22 l-33 16 78 3 77 3 0 29 c0 17 0 33 0 38 1 4 -14 10 -32 13
-48 8 -58 16 -58 50 0 38 17 38 25 -1 4 -19 14 -32 28 -35 12 -3 112 -4 222
-3 l200 3 3 55 c3 43 0 57 -15 67 -13 11 -19 31 -21 88 -4 70 -3 75 17 75 19
0 20 -4 14 -64z m-181 14 c11 0 16 -4 13 -10 -11 -18 -53 -11 -69 12 -24 34
-19 42 10 19 15 -12 35 -21 46 -21z m-2121 -1 c19 -16 20 -18 4 -10 -34 17
-51 31 -39 31 7 0 22 -9 35 -21z m556 -5 c-3 -3 -12 -4 -19 -1 -8 3 -5 6 6 6
11 1 17 -2 13 -5z m413 -37 c47 -24 92 -46 100 -49 8 -3 12 -8 9 -12 -6 -7
-120 46 -162 76 -27 19 -45 20 -92 4 -13 -5 -12 -2 5 8 37 22 48 20 140 -27z
m106 -25 c-5 -4 -126 56 -126 63 0 3 29 -10 65 -27 35 -18 63 -34 61 -36z
m662 15 c41 -41 42 -45 42 -108 0 -77 -19 -104 -75 -104 l-34 0 25 26 c19 20
24 35 24 80 0 46 -5 60 -31 92 -29 35 -31 57 -5 57 6 0 31 -19 54 -43z m-2203
16 c18 -14 18 -15 2 -9 -10 3 -23 6 -28 6 -5 0 -9 5 -9 10 0 14 12 12 35 -7z
m155 -23 c33 -7 33 -8 7 -9 -37 -1 -67 15 -67 36 0 15 1 15 13 -1 7 -10 29
-21 47 -26z m780 35 c0 -6 -50 -32 -158 -82 -140 -64 -125 -51 23 22 150 73
135 66 135 60z m329 -9 c-2 -2 -15 -9 -29 -15 -24 -11 -24 -11 -6 3 16 13 49
24 35 12z m1606 -29 c19 -4 19 -5 -1 -6 -11 0 -29 9 -40 22 -19 22 -19 22 1 6
11 -10 29 -19 40 -22z m-2151 -6 c-10 -10 -21 -18 -24 -18 -3 0 -23 -7 -44
-16 -22 -10 -41 -16 -43 -13 -6 5 66 46 82 46 8 0 17 5 20 10 3 6 11 10 17 10
6 0 3 -8 -8 -19z m1341 5 c39 -17 57 -45 57 -91 0 -43 -16 -72 -52 -90 -43
-22 -76 -19 -105 12 -50 55 -43 133 15 165 42 22 42 22 85 4z m-2010 -16 c10
-11 16 -20 13 -20 -3 0 -13 9 -23 20 -10 11 -16 20 -13 20 3 0 13 -9 23 -20z
m-145 -22 c0 -18 -2 -20 -9 -8 -6 8 -7 18 -5 22 9 14 14 9 14 -14z m3360 2
c73 -21 140 -106 140 -177 0 -51 -14 -56 -30 -9 -15 45 -77 116 -117 132 -18
8 -62 14 -98 14 -71 0 -78 11 -21 36 37 16 79 17 126 4z m-2080 -21 c0 -6 -4
-7 -10 -4 -5 3 -10 11 -10 16 0 6 5 7 10 4 6 -3 10 -11 10 -16z m1348 3 c2 -7
-3 -12 -12 -12 -9 0 -16 7 -16 16 0 17 22 14 28 -4z m108 -31 c0 -44 -2 -49
-17 -40 -10 5 -27 9 -38 9 -14 0 -21 6 -21 20 0 15 7 20 26 20 14 0 23 4 20 9
-3 5 -15 7 -26 4 -14 -4 -20 0 -20 11 0 12 10 16 38 16 l38 0 0 -49z m-2569
-43 c-2 -18 -4 -6 -4 27 0 33 2 48 4 33 2 -15 2 -42 0 -60z m1051 66 c14 -15
14 -16 -3 -13 -10 2 -20 10 -23 17 -5 17 6 15 26 -4z m1329 -6 c-3 -8 -6 -5
-6 6 -1 11 2 17 5 13 3 -3 4 -12 1 -19z m-2842 -117 c-7 -6 -81 66 -107 104
-12 17 9 1 45 -34 37 -36 64 -67 62 -70z m405 108 c0 -6 -4 -7 -10 -4 -5 3
-10 11 -10 16 0 6 5 7 10 4 6 -3 10 -11 10 -16z m575 11 c-3 -5 -16 -10 -28
-10 -18 0 -19 2 -7 10 20 13 43 13 35 0z m878 -10 c-3 -12 -8 -19 -11 -16 -5
6 5 36 12 36 2 0 2 -9 -1 -20z m-1498 -1 c11 -16 0 -21 -30 -13 -20 5 -23 9
-13 15 18 12 36 11 43 -2z m1090 2 c-6 -5 -21 -12 -35 -15 l-25 -7 25 15 c28
17 50 21 35 7z m-118 -33 c-3 -7 -5 -2 -5 12 0 14 2 19 5 13 2 -7 2 -19 0 -25z
m-1264 15 c-7 -2 -21 -2 -30 0 -10 3 -4 5 12 5 17 0 24 -2 18 -5z m827 -4 c0
6 5 11 10 11 21 0 9 -17 -24 -33 -39 -18 -54 -11 -28 13 12 12 21 14 30 8 8
-7 12 -7 12 1z m110 -19 c-30 -16 -59 -29 -65 -29 -5 0 15 13 45 29 30 16 60
29 65 29 6 0 -15 -13 -45 -29z m913 23 c-7 -2 -21 -2 -30 0 -10 3 -4 5 12 5
17 0 24 -2 18 -5z m-1268 -63 c-33 -33 -67 -60 -76 -60 -19 0 -49 25 -49 41 0
5 9 0 20 -11 11 -11 25 -20 31 -20 6 0 36 25 67 55 77 73 81 70 7 -5z m615 30
c-23 -14 5 -37 40 -32 20 3 30 0 30 -9 0 -7 -3 -9 -6 -6 -4 3 -16 0 -28 -8
-28 -20 -42 -19 -83 6 l-33 21 42 22 c40 20 69 25 38 6z m1577 -17 c-3 -10 -5
-4 -5 12 0 17 2 24 5 18 2 -7 2 -21 0 -30z m73 21 c0 -9 -5 -14 -12 -12 -18 6
-21 28 -4 28 9 0 16 -7 16 -16z m-1045 -4 c-15 -7 -10 -9 23 -9 58 -1 51 -25
-7 -29 -34 -3 -41 -6 -36 -19 3 -9 0 -20 -7 -25 -8 -4 6 -8 35 -8 35 0 47 -4
47 -15 0 -11 -11 -15 -39 -15 -21 0 -53 -3 -70 -6 l-31 -6 0 -154 0 -154 70 0
c84 0 93 -16 13 -25 -282 -29 -568 -133 -808 -295 -139 -93 -267 -205 -306
-267 -11 -18 -29 -35 -40 -38 -22 -7 -150 -195 -142 -208 5 -8 124 -71 135
-72 4 0 29 32 56 70 27 39 94 116 149 172 56 56 98 102 94 101 -27 -3 -33 3
-15 16 12 9 23 11 30 5 8 -7 45 12 116 59 56 38 113 74 125 81 15 7 20 17 17
29 -4 12 -3 13 3 4 7 -10 31 -2 104 33 52 24 91 45 87 46 -26 5 -35 4 -50 -3
-11 -5 -19 -3 -24 4 -4 7 -4 10 1 6 4 -4 16 1 25 12 15 18 19 18 30 5 18 -21
33 -19 25 4 -7 22 5 33 24 22 10 -6 10 -13 2 -29 -11 -20 -11 -20 54 1 50 16
61 23 49 30 -11 6 -19 5 -24 -3 -4 -6 -18 -10 -31 -8 -24 4 -24 4 5 18 34 17
86 61 86 72 0 5 -7 8 -14 8 -27 0 -180 -52 -255 -86 -41 -19 -76 -33 -78 -31
-7 8 116 65 192 90 190 60 277 78 380 76 l60 -2 -75 -7 c-41 -4 -90 -10 -107
-14 -37 -8 -46 -27 -10 -20 l22 5 -22 -10 c-25 -11 -32 -34 -8 -25 8 4 15 1
15 -5 0 -6 -9 -11 -21 -11 -11 0 -17 -4 -14 -10 3 -5 4 -10 1 -10 -2 0 -13 -3
-23 -7 -10 -3 -15 -3 -11 2 9 9 -9 35 -25 35 -6 0 -8 -3 -4 -6 3 -3 1 -17 -4
-31 -9 -24 -8 -25 18 -18 113 29 257 43 267 26 17 -26 -9 -39 -112 -55 -59 -9
-154 -30 -212 -47 -101 -29 -319 -128 -370 -168 l-24 -19 28 -41 c16 -23 30
-41 31 -41 1 0 44 22 96 49 139 73 231 107 358 132 94 18 114 26 121 43 7 17
9 18 9 4 1 -14 10 -18 41 -18 28 0 40 -4 40 -14 0 -10 -19 -16 -67 -21 -117
-10 -196 -25 -261 -48 -67 -24 -68 -24 -43 -90 l10 -24 79 22 c83 25 225 45
254 37 27 -7 21 -22 -7 -22 -19 0 -25 -5 -23 -17 2 -14 -12 -19 -81 -30 -46
-7 -90 -18 -97 -24 -7 -6 -17 -8 -22 -5 -15 9 -80 -13 -86 -30 -5 -12 -2 -15
11 -9 10 3 65 20 122 36 106 29 150 34 186 20 14 -6 -5 -10 -60 -16 -210 -19
-392 -101 -610 -271 -58 -46 -59 -46 -25 -10 43 46 157 126 265 184 44 24 68
41 53 38 l-27 -6 27 28 c19 20 48 33 102 47 68 16 138 44 116 45 -22 1 -218
-62 -279 -89 -231 -104 -454 -317 -562 -536 -78 -159 -103 -264 -114 -470 -4
-77 -9 -116 -9 -87 l-2 52 -126 0 -127 0 7 -77 c10 -122 35 -251 66 -345 35
-104 115 -278 128 -278 19 0 102 41 102 51 0 5 -14 36 -30 69 -17 33 -39 84
-50 112 -21 59 -61 200 -57 204 1 2 25 7 52 11 42 7 51 12 53 32 3 22 4 22 23
5 15 -13 19 -14 20 -3 0 8 11 -24 23 -71 13 -51 27 -84 34 -82 13 2 14 1 17
-48 3 -45 21 -90 36 -90 8 0 8 -4 1 -13 -8 -9 -4 -24 14 -55 14 -23 29 -42 35
-42 5 0 9 -6 9 -13 0 -7 22 -38 50 -69 28 -31 50 -60 50 -65 0 -20 112 -115
215 -183 107 -71 222 -130 251 -130 9 0 34 -8 57 -19 44 -20 111 -36 190 -46
26 -3 47 -10 47 -14 0 -10 -122 6 -190 25 -134 39 -161 49 -259 101 -115 61
-110 61 -147 -9 -13 -25 -12 -28 18 -50 18 -13 44 -29 58 -36 14 -7 49 -27 78
-44 l52 -30 22 51 c25 62 33 61 16 -4 -12 -43 -11 -48 7 -62 19 -15 19 -15 -5
-8 -14 3 -58 22 -98 42 -40 20 -74 34 -76 32 -2 -2 -16 -28 -30 -57 l-27 -53
93 -44 c122 -58 299 -110 423 -126 123 -15 152 -33 40 -24 -101 8 -211 29
-295 56 -157 52 -370 170 -482 268 -25 23 -50 41 -55 41 -25 0 -210 225 -292
354 -56 90 -116 220 -156 341 -32 93 -58 312 -53 436 2 54 0 95 -4 93 -4 -3
-8 -73 -8 -156 0 -237 38 -384 165 -638 29 -58 77 -138 107 -179 74 -102 86
-122 49 -81 -17 19 -56 72 -87 118 -32 46 -64 82 -73 82 -12 0 -13 2 -3 8 9 6
1 33 -34 108 -111 237 -137 346 -138 594 -1 258 31 398 145 639 33 68 59 127
59 131 0 3 -24 17 -52 31 -29 13 -69 33 -89 45 -59 36 -325 174 -335 174 -5 0
-22 -28 -39 -61 -16 -33 -40 -79 -52 -102 -12 -23 -22 -45 -22 -48 -1 -3 36
-18 82 -34 80 -27 115 -45 88 -45 -7 0 -51 13 -97 30 l-85 30 -14 -33 c-16
-39 -13 -43 22 -29 31 12 56 15 93 12 14 -1 -2 -8 -39 -16 -36 -8 -75 -21 -87
-29 -32 -20 -39 -63 -16 -89 30 -34 69 -106 58 -106 -2 0 -17 20 -33 45 -16
26 -34 44 -43 43 -15 -3 -52 -109 -41 -119 3 -4 22 -12 41 -18 31 -9 176 -129
159 -131 -3 0 -39 27 -79 59 -74 61 -126 81 -134 52 -7 -23 -26 -132 -26 -147
0 -7 23 -17 52 -23 118 -26 187 -73 250 -169 l43 -66 3 42 c2 23 7 42 13 42 5
0 9 -54 8 -127 -1 -125 -2 -127 -13 -73 l-12 55 -21 -35 c-53 -87 -142 -170
-210 -195 -16 -6 -43 -19 -62 -29 -30 -16 -33 -21 -26 -49 3 -18 9 -47 12 -64
4 -22 11 -33 22 -33 19 0 97 40 159 81 23 16 42 26 42 23 0 -3 -22 -38 -50
-78 -52 -75 -105 -190 -95 -206 17 -28 43 -6 79 68 48 97 165 292 175 292 4 0
18 -39 31 -87 36 -138 119 -333 141 -333 6 0 7 -4 4 -10 -6 -10 70 -171 87
-181 5 -3 28 -39 51 -80 37 -65 47 -75 80 -83 33 -9 37 -13 37 -42 0 -29 13
-44 113 -134 281 -253 593 -400 945 -445 96 -12 122 -19 111 -29 -2 -2 -33 0
-69 4 -35 5 -68 6 -72 4 -5 -3 -8 -84 -8 -179 0 -199 -2 -195 89 -195 28 0 51
-4 51 -10 0 -38 -432 39 -603 108 -38 14 -41 14 -51 -1 -8 -12 -18 15 -43 121
-27 112 -33 157 -33 248 l0 110 -39 22 c-41 24 -51 21 -51 -14 0 -21 -12 -27
-112 -58 -62 -19 -143 -42 -180 -51 -38 -10 -68 -21 -68 -25 0 -20 349 -246
369 -238 13 4 -49 135 -84 176 -31 37 -27 56 6 26 36 -32 120 -217 105 -231
-1 -2 -21 3 -43 11 -75 27 -322 196 -462 317 -68 59 -81 66 -91 53 -7 -8 -15
-12 -18 -9 -3 3 2 13 11 23 15 16 13 21 -37 72 -29 30 -89 108 -133 172 -44
65 -84 114 -88 110 -5 -4 -6 -2 -2 3 3 6 -23 61 -57 123 l-63 112 -25 -19
c-25 -20 -48 -13 -48 14 0 5 4 4 9 -4 11 -18 51 3 51 27 -1 32 -24 62 -40 52
-21 -14 -30 -12 -30 5 0 8 9 15 20 15 11 0 20 2 20 5 0 3 -14 36 -31 73 -17
37 -43 108 -59 157 l-28 90 -33 -2 -34 -2 30 8 c33 8 36 23 15 99 -7 28 -16
42 -27 42 -13 0 -14 3 -5 12 14 14 16 57 3 77 -7 10 -13 11 -32 1 -23 -11 -23
-10 -5 4 11 9 23 16 28 16 4 0 8 47 8 105 l0 105 -30 0 c-16 0 -30 4 -30 10 0
5 13 7 30 4 l30 -6 -1 113 c0 63 5 146 11 184 6 39 13 86 17 106 5 34 3 37
-26 47 -17 6 -31 16 -31 22 0 7 6 8 19 0 35 -18 50 -12 60 28 25 94 25 88 -11
102 -18 7 -28 14 -21 17 7 2 22 -1 33 -7 25 -14 23 -15 37 33 11 36 10 37 -15
38 l-27 2 28 4 c22 4 32 14 48 50 11 25 18 47 17 48 -2 1 -16 10 -33 19 -29
16 -11 17 27 1 14 -6 22 4 43 50 14 32 25 59 25 60 0 1 -13 8 -30 15 -16 7
-27 17 -24 22 3 5 15 1 26 -8 23 -22 44 -12 71 34 l19 32 -26 10 c-35 13 -33
24 4 17 28 -6 33 -2 71 56 23 34 55 78 71 98 34 44 34 50 7 67 -18 12 -23 10
-42 -15 -48 -61 -66 -75 -28 -21 44 62 51 78 24 57 -16 -13 -17 -12 -4 4 8 9
16 15 19 12 7 -7 52 35 52 48 0 6 -10 2 -22 -9 -21 -17 -21 -17 1 8 13 15 28
25 32 22 5 -3 10 0 10 5 1 6 2 17 3 24 0 6 8 12 16 12 8 1 14 6 13 12 -5 24
265 260 401 353 66 44 188 106 193 98 1 -2 8 5 15 15 36 48 431 185 623 216
182 29 176 28 220 29 31 0 35 -1 20 -8z m1717 -22 l1 -33 4 33 c4 28 7 32 26
27 12 -4 37 -23 55 -42 25 -28 32 -45 32 -76 0 -46 -24 -91 -57 -106 -30 -14
-98 -14 -124 -1 -27 15 -49 63 -49 109 0 33 7 47 38 81 48 50 71 52 74 8z
m-4358 -160 c3 -90 10 -291 16 -448 14 -398 38 -670 96 -1068 31 -219 102
-601 137 -742 81 -321 244 -735 399 -1015 315 -567 777 -1078 1343 -1487 162
-116 477 -324 607 -399 70 -40 129 -81 131 -90 6 -22 -244 131 -538 329 -242
163 -285 194 -455 331 -177 142 -229 190 -436 402 -491 505 -853 1141 -1047
1844 -67 241 -137 626 -192 1047 -41 316 -84 1010 -85 1371 0 151 18 94 24
-75z m1695 158 c-2 -2 -15 -9 -29 -15 -24 -11 -24 -11 -6 3 16 13 49 24 35 12z
m-59 -31 c0 -2 -18 -14 -40 -25 -22 -11 -40 -18 -40 -15 0 2 17 13 38 24 42
23 42 23 42 16z m270 -21 c0 -6 -65 -34 -77 -33 -4 0 10 9 32 19 48 22 45 21
45 14z m-920 -37 c22 -4 22 -4 -5 -6 -30 -1 -55 14 -55 33 0 5 8 2 18 -7 9 -8
28 -17 42 -20z m4020 -4 c0 4 14 0 31 -9 17 -9 42 -14 55 -11 20 3 22 2 13 -9
-15 -19 -54 -18 -74 2 -10 11 -20 13 -28 6 -20 -15 -96 -21 -195 -15 -78 5
-95 9 -103 25 -9 17 -8 18 10 9 11 -6 73 -11 141 -11 101 0 122 3 127 16 5 13
7 13 14 2 5 -7 9 -10 9 -5z m-3211 -7 c-15 -13 -49 -25 -49 -17 0 5 8 12 18
14 24 6 36 8 31 3z m-95 -41 c9 -14 16 -29 16 -35 0 -22 -17 -8 -37 29 -23 44
-6 48 21 6z m-999 -31 c35 13 115 18 115 7 0 -6 -17 -12 -37 -13 l-38 -1 38
-4 c20 -2 37 -8 37 -14 0 -5 7 -9 15 -9 11 0 12 5 5 25 -5 14 -6 25 -2 26 4 0
-6 7 -23 14 -23 11 -25 14 -10 14 27 1 41 -10 49 -36 4 -12 15 -25 26 -28 24
-8 32 -32 19 -56 -6 -13 -7 -30 -2 -47 13 -41 5 -69 -22 -76 -13 -3 -31 -9
-41 -13 -12 -4 -15 -3 -10 5 5 8 -2 12 -19 12 -23 0 -25 -3 -20 -22 4 -14 3
-18 -2 -11 -9 12 -92 35 -104 28 -10 -7 -19 107 -12 165 5 43 4 52 -7 45 -10
-6 -12 -4 -7 9 4 10 7 23 8 29 0 7 7 -3 15 -21 10 -23 20 -32 29 -28z m2568
-132 c-4 -243 -21 -257 -22 -17 -1 159 1 196 12 186 9 -9 11 -54 10 -169z
m-3096 162 c-3 -3 -12 -4 -19 -1 -8 3 -5 6 6 6 11 1 17 -2 13 -5z m2493 -38
c0 -8 6 -16 12 -18 10 -4 10 -11 2 -29 l-11 -24 -16 30 -16 30 -9 -25 c-9 -22
-6 -27 19 -39 33 -17 38 -47 9 -56 -48 -15 -84 27 -38 44 l23 8 -23 7 c-12 4
-22 12 -22 17 0 6 5 7 10 4 6 -3 10 -1 10 4 0 6 -4 11 -10 11 -5 0 -10 10 -9
23 0 21 1 21 9 2 5 -11 9 -14 9 -7 1 6 8 12 16 12 8 0 15 5 15 10 0 6 5 10 10
10 6 0 10 -6 10 -14z m2045 -16 c4 -6 70 -10 163 -10 136 0 163 -3 202 -21 57
-26 90 -56 90 -83 0 -25 -36 -53 -43 -33 -3 8 -10 7 -24 -5 -24 -22 -41 -23
-65 -1 -24 21 -23 45 3 68 17 16 25 17 52 7 l32 -11 -24 19 c-21 18 -39 20
-197 20 -144 0 -179 3 -199 16 -14 9 -25 23 -25 30 0 16 26 19 35 4z m513 -69
c-11 -4 -48 28 -48 41 0 5 13 -1 28 -14 16 -13 25 -25 20 -27z m-3757 22 c13
-16 12 -17 -3 -4 -10 7 -18 15 -18 17 0 8 8 3 21 -13z m-1376 -41 c-6 -7 -45
19 -45 29 0 5 11 2 24 -8 13 -10 23 -19 21 -21z m503 16 c14 -14 16 -28 2 -28
-5 0 -14 9 -20 20 -12 22 -1 27 18 8z m4042 -23 l34 -35 132 0 c146 0 177 -8
200 -51 21 -42 17 -72 -14 -102 -50 -48 -98 -26 -108 49 -4 39 -4 39 7 9 16
-41 28 -55 50 -55 20 0 59 37 59 56 0 18 -42 67 -49 56 -3 -5 -18 -11 -34 -14
-23 -5 -25 -3 -15 10 11 13 1 14 -87 8 -116 -8 -145 0 -193 55 -18 20 -32 39
-32 43 0 14 18 4 50 -29z m-4151 -99 c31 -24 74 -65 94 -90 40 -48 87 -124 87
-141 0 -5 -17 19 -37 54 -61 102 -172 200 -305 267 -27 13 -48 27 -48 30 0 11
152 -76 209 -120z m1031 110 c0 -6 -200 -169 -220 -180 -8 -5 3 7 25 25 22 19
71 62 110 96 63 57 85 72 85 59z m3050 -38 c24 -26 26 -58 4 -58 -8 0 -13 4
-10 8 3 5 -8 23 -24 40 -25 28 -26 32 -10 32 11 0 28 -10 40 -22z m-120 -2 c0
-8 3 -21 6 -30 4 -12 0 -16 -16 -16 -16 0 -20 4 -16 16 5 14 -4 16 -79 13 -57
-3 -85 0 -85 7 0 21 14 24 102 24 69 0 88 -3 88 -14z m-1471 -21 c42 -36 56
-83 37 -129 -49 -117 -216 -86 -216 40 0 39 5 51 34 80 44 44 99 47 145 9z
m1527 -67 c19 -9 28 -8 44 7 16 14 20 15 20 4 0 -8 -5 -20 -11 -26 -8 -8 -4
-16 15 -28 24 -16 28 -16 60 -1 19 9 50 16 69 16 44 0 90 -17 82 -30 -4 -6
-15 -6 -31 0 -39 15 -103 12 -135 -7 -27 -16 -29 -16 -51 4 -13 12 -42 26 -65
32 -40 11 -42 13 -39 44 6 49 9 54 13 24 3 -17 14 -32 29 -39z m-295 22 c19 0
26 -24 10 -34 -16 -10 -61 13 -61 30 0 11 5 14 16 10 9 -3 24 -6 35 -6z m229
-31 c0 -22 -4 -38 -8 -35 -8 5 -4 76 4 76 2 0 4 -18 4 -41z m-3205 11 c3 -6
-1 -7 -9 -4 -18 7 -21 14 -7 14 6 0 13 -4 16 -10z m-517 -51 c12 0 13 -2 4 -6
-14 -5 -62 33 -62 50 0 5 9 -2 21 -17 11 -14 28 -26 37 -27z m-338 21 c13 -9
13 -10 0 -10 -8 0 -22 5 -30 10 -13 9 -13 10 0 10 8 0 22 -5 30 -10z m898 -15
c-3 -3 -9 2 -12 12 -6 14 -5 15 5 6 7 -7 10 -15 7 -18z m-768 -31 c0 -3 -13 4
-30 16 -16 12 -30 24 -30 26 0 3 14 -4 30 -16 17 -12 30 -24 30 -26z m330 6
c16 -5 2 -6 -35 -3 -33 3 -62 7 -64 9 -8 7 74 2 99 -6z m1907 -27 c-3 -10 -5
-4 -5 12 0 17 2 24 5 18 2 -7 2 -21 0 -30z m-2211 -57 c12 -17 25 -44 28 -61
5 -23 0 -19 -20 20 -15 28 -29 52 -33 55 -3 3 -19 21 -36 40 l-30 34 35 -28
c19 -16 45 -43 56 -60z m-310 61 c-51 -31 -116 -102 -126 -136 -26 -96 1 -185
78 -251 26 -21 44 -41 41 -44 -10 -11 -98 76 -118 117 -28 57 -29 153 -2 205
23 44 76 97 111 111 33 13 39 12 16 -2z m266 -59 c18 -21 32 -55 39 -91 16
-88 -7 -154 -76 -223 -51 -52 -75 -65 -75 -44 0 6 4 10 8 10 5 0 27 16 51 36
110 94 111 229 2 327 -23 20 -41 42 -41 48 0 17 61 -25 92 -63z m734 14 c-6
-5 -65 40 -65 51 -1 4 15 -4 34 -19 20 -15 33 -29 31 -32z m3275 28 c20 0 7
-18 -17 -24 -31 -8 -39 -3 -30 20 4 10 12 14 22 10 9 -3 20 -6 25 -6z m287
-13 c48 -40 94 -145 57 -131 -8 4 -15 14 -15 23 0 25 -11 33 -27 20 -7 -6 -13
-8 -13 -3 -1 5 -7 -5 -14 -22 -10 -23 -25 -35 -58 -47 -31 -10 -45 -11 -46 -3
-6 49 -20 91 -30 89 -7 -2 -12 0 -12 3 0 11 24 50 39 62 10 8 2 6 -19 -3 l-35
-16 29 27 c27 23 35 25 80 19 28 -3 57 -11 64 -18z m431 -41 c1 -13 -62 38
-68 55 -2 8 12 0 32 -16 19 -17 36 -34 36 -39z m-984 44 c-3 -5 -15 -10 -25
-10 -10 0 -22 5 -25 10 -4 6 7 10 25 10 18 0 29 -4 25 -10z m-3907 -7 c-16 -2
-40 -2 -55 0 -16 2 -3 4 27 4 30 0 43 -2 28 -4z m-119 -26 c-52 -35 -79 -82
-79 -138 0 -62 11 -89 56 -139 20 -22 34 -43 32 -46 -8 -7 -78 76 -89 104 -12
30 -12 114 0 145 13 33 77 97 98 97 10 0 2 -9 -18 -23z m197 7 c19 -15 19 -15
-1 -6 -11 5 -27 12 -35 15 -13 5 -13 6 1 6 8 1 24 -6 35 -15z m2247 -1 c-7 -2
-19 -2 -25 0 -7 3 -2 5 12 5 14 0 19 -2 13 -5z m1699 -8 c0 -5 -5 -11 -11 -13
-6 -2 -11 4 -11 13 0 9 5 15 11 13 6 -2 11 -8 11 -13z m71 0 c-3 -9 -8 -14
-10 -11 -3 3 -2 9 2 15 9 16 15 13 8 -4z m-1763 -13 c0 -4 -9 -8 -20 -9 -11
-1 -18 2 -15 8 7 11 35 12 35 1z m2456 -8 c31 -21 59 -73 46 -86 -6 -6 -11 2
-15 20 -4 20 -18 37 -42 52 -19 12 -35 24 -35 26 0 9 22 3 46 -12z m-4647 -25
c25 -41 34 -102 21 -150 -12 -45 -74 -119 -99 -119 -10 0 -6 7 13 20 76 49
101 170 51 244 -13 20 -20 36 -15 36 6 0 19 -14 29 -31z m2121 21 c0 -5 -4
-10 -10 -10 -5 0 -10 5 -10 10 0 6 5 10 10 10 6 0 10 -4 10 -10z m1848 -32
c-3 -9 -32 -13 -98 -13 -66 0 -95 4 -97 13 -4 9 20 12 97 12 77 0 101 -3 98
-12z m-4120 -21 c18 -4 32 -2 32 3 0 6 5 10 10 10 6 0 9 -3 9 -7 -5 -29 2 -42
19 -36 16 6 16 5 1 -13 -22 -26 -16 -52 18 -81 15 -14 21 -21 13 -17 -8 4 -23
14 -33 22 -13 11 -20 13 -28 5 -8 -8 -5 -21 11 -45 l22 -33 -24 28 c-32 36
-58 28 -58 -19 0 -19 -4 -34 -10 -34 -5 0 -10 18 -10 40 0 46 -19 54 -44 18
-10 -14 -16 -17 -16 -9 0 8 7 22 16 32 21 23 10 43 -16 29 -18 -9 -18 -8 -5
17 9 18 11 31 5 37 -14 14 -12 26 3 24 6 -2 11 5 11 14 -1 10 4 14 12 11 9 -3
14 2 14 13 0 12 3 15 8 8 4 -6 22 -14 40 -17z m2429 -110 c-2 -23 -3 -1 -3 48
0 50 1 68 3 42 2 -26 2 -67 0 -90z m207 97 c21 -20 20 -27 -4 -49 -13 -12 -21
-32 -22 -59 -1 -36 -2 -37 -5 -9 -2 17 -11 37 -19 43 -8 7 -14 17 -14 22 0 6
7 5 15 -2 12 -10 18 -10 30 0 8 7 15 17 15 23 0 7 -4 7 -12 -1 -19 -19 -31
-14 -25 9 4 15 2 19 -9 15 -8 -3 -14 1 -14 9 0 20 44 19 64 -1z m-1899 -92
c-6 -6 -75 49 -75 60 0 5 18 -6 39 -24 22 -18 38 -34 36 -36z m3974 19 c11 -6
29 -11 41 -11 18 0 19 -3 9 -22 -6 -13 -13 -25 -15 -27 -6 -6 -64 40 -75 60
-6 12 -7 28 -4 37 6 15 8 14 15 -5 5 -12 18 -26 29 -32z m-2989 24 c0 -2 -10
-9 -22 -15 -22 -11 -22 -10 -4 4 21 17 26 19 26 11z m124 -37 c-9 -14 -22 -9
-27 11 -4 17 -2 18 13 8 10 -6 16 -15 14 -19z m-47 -11 c-6 -17 -45 -29 -53
-16 -3 5 -2 9 3 8 31 -5 45 2 40 22 -4 16 -3 19 5 11 6 -6 8 -17 5 -25z m2316
26 c-7 -2 -21 -2 -30 0 -10 3 -4 5 12 5 17 0 24 -2 18 -5z m692 -3 c-3 -5 -12
-10 -18 -10 -7 0 -6 4 3 10 19 12 23 12 15 0z m-588 -57 c-8 -7 -35 9 -41 23
-4 11 0 11 20 -2 13 -9 23 -18 21 -21z m-627 7 c0 -5 -4 -10 -10 -10 -5 0 -10
5 -10 10 0 6 5 10 10 10 6 0 10 -4 10 -10z m70 0 c0 -5 -4 -10 -10 -10 -5 0
-10 5 -10 10 0 6 5 10 10 10 6 0 10 -4 10 -10z m73 -2 c-6 -7 -13 -20 -16 -28
-3 -9 -6 -3 -6 13 -1 19 4 27 15 27 12 0 14 -4 7 -12z m77 8 c0 -3 -4 -8 -10
-11 -5 -3 -10 -1 -10 4 0 6 5 11 10 11 6 0 10 -2 10 -4z m308 -20 c3 -14 -10
-16 -97 -16 -81 0 -101 3 -101 14 0 17 28 22 125 20 56 -1 71 -5 73 -18z
m-2525 -42 c-7 -19 -17 -18 -36 4 -13 14 -14 21 -5 30 15 15 49 -13 41 -34z
m1987 26 c0 -5 -4 -10 -10 -10 -5 0 -10 5 -10 10 0 6 5 10 10 10 6 0 10 -4 10
-10z m220 6 c0 -3 -4 -8 -10 -11 -5 -3 -10 -1 -10 4 0 6 5 11 10 11 6 0 10 -2
10 -4z m840 -41 c0 -44 -64 -70 -102 -41 -30 22 -21 37 11 18 24 -13 33 -14
56 -4 21 10 26 18 23 37 -3 13 -1 22 3 19 5 -3 9 -16 9 -29z m-494 -13 c-24
-3 -26 -7 -26 -57 0 -53 0 -54 32 -57 42 -4 46 -23 8 -36 -26 -10 -30 -9 -30
8 0 10 -5 20 -12 22 -7 3 -13 33 -16 75 -3 63 -1 72 15 75 10 3 26 -3 37 -11
18 -15 17 -16 -8 -19z m-329 19 c21 -1 21 -3 7 -28 -7 -16 -14 -53 -15 -83 -1
-50 -2 -52 -10 -25 -5 17 -7 45 -4 63 l6 32 -103 0 c-74 0 -99 3 -88 11 12 8
8 10 -15 8 -53 -2 -75 1 -75 10 0 5 12 11 28 13 23 2 193 2 269 -1z m-499
-197 c-104 -101 -188 -186 -188 -190 0 -7 140 119 267 240 46 43 86 76 90 73
5 -6 -71 -81 -171 -169 -21 -18 -68 -61 -105 -95 -64 -60 -101 -78 -101 -49 0
8 35 47 77 87 42 41 127 126 189 189 62 63 117 111 121 106 4 -4 -76 -91 -179
-192z m-2608 182 c0 -2 -8 -10 -17 -17 -16 -13 -17 -12 -4 4 13 16 21 21 21
13z m1948 -167 c-6 -12 2 -18 35 -25 l42 -10 2 49 c2 26 8 58 15 70 12 22 12
21 19 -8 4 -16 7 -49 8 -72 1 -36 -2 -41 -16 -36 -44 15 3 -13 62 -38 l65 -27
0 60 0 59 62 60 c60 56 83 68 83 40 0 -7 -23 -36 -52 -64 -49 -50 -52 -55 -54
-110 -2 -31 2 -61 7 -66 18 -16 109 -63 97 -50 -7 7 -13 30 -13 50 0 30 8 44
44 79 45 44 106 78 106 59 0 -5 -7 -12 -15 -15 -8 -4 -15 -10 -15 -16 0 -5
-13 -20 -29 -33 -20 -17 -33 -42 -43 -83 l-15 -59 79 -63 c87 -68 182 -176
239 -269 l36 -60 84 85 84 84 308 0 309 0 119 122 c65 67 119 127 119 134 0
20 35 35 48 22 13 -13 5 -38 -13 -38 -11 0 -81 -68 -219 -215 -55 -58 -12 -54
-399 -41 l-259 9 -88 -88 -87 -87 20 -49 c12 -29 27 -49 36 -49 37 0 63 14 77
41 8 16 28 45 45 64 l31 35 350 0 350 0 54 46 c29 25 52 50 49 54 -7 11 111
120 130 120 9 0 15 6 13 13 -1 6 4 23 11 36 l13 24 19 -24 c19 -25 25 -48 12
-50 -5 -1 -17 -3 -28 -4 -11 -1 -76 -57 -145 -124 l-125 -122 -230 5 c-126 4
-279 9 -340 12 l-110 6 -42 -40 c-24 -22 -43 -45 -43 -50 0 -5 -11 -21 -25
-36 -42 -45 -5 -28 41 19 l43 45 356 0 c252 0 363 3 378 12 38 20 192 163 192
178 0 8 9 15 20 15 27 0 27 -38 0 -44 -11 -2 -45 -27 -76 -55 -31 -29 -77 -69
-102 -90 l-46 -37 -358 7 -358 7 -43 -47 c-45 -48 -60 -53 -94 -35 -11 6 -21
9 -23 7 -2 -2 7 -40 21 -86 30 -106 49 -278 39 -366 -4 -37 -11 -64 -15 -60
-5 5 -10 52 -13 104 -14 325 -118 556 -349 774 -56 53 -105 96 -110 96 -5 0
-30 14 -54 31 -54 37 -177 95 -248 116 -28 9 -103 25 -166 37 -91 17 -115 25
-118 39 -3 14 4 17 32 17 l36 0 0 69 c0 61 2 69 21 74 20 5 20 2 17 -68 -3
-67 -1 -75 17 -79 44 -12 55 -7 56 27 0 27 2 29 9 12 6 -14 9 5 11 60 l3 80 5
-80 c3 -44 3 -87 -1 -96z m2260 162 c26 10 28 2 5 -23 -19 -21 -44 -23 -61 -6
-21 21 -15 38 11 29 12 -5 32 -5 45 0z m-3401 -31 c6 -12 9 -30 6 -38 -4 -10
-12 -2 -25 24 -21 45 -22 47 -5 42 6 -3 17 -15 24 -28z m2931 18 c19 -19 15
-42 -5 -32 -10 4 -43 9 -73 11 -67 5 -83 10 -75 23 9 14 138 13 153 -2z
m-2993 -6 c-6 -5 -32 -28 -60 -52 l-50 -43 52 51 c28 29 55 52 59 52 5 0 4 -4
-1 -8z m-1457 -11 c16 12 16 12 0 -6 -18 -19 -18 -19 -35 0 -17 18 -17 18 0 6
14 -11 20 -11 35 0z m583 -47 c13 -16 12 -16 -6 -7 -11 6 -31 24 -45 39 l-25
28 31 -22 c17 -11 37 -29 45 -38z m913 10 c3 -8 2 -12 -4 -9 -6 3 -10 10 -10
16 0 14 7 11 14 -7z m-1492 -42 c-19 -19 -21 -19 -36 -3 -9 10 -16 24 -15 32
0 8 5 4 11 -8 6 -13 14 -23 18 -23 12 0 21 30 14 43 -4 7 1 5 11 -4 16 -16 16
-18 -3 -37z m3676 6 c9 -9 12 -9 12 0 0 23 18 12 30 -18 7 -17 21 -35 31 -41
17 -9 16 -12 -15 -39 -40 -36 -65 -37 -111 -7 -35 22 -47 57 -20 57 9 0 18 12
22 30 6 32 29 40 51 18z m217 -18 c4 -6 -7 -10 -24 -10 -17 0 -31 5 -31 10 0
6 11 10 24 10 14 0 28 -4 31 -10z m-3291 -25 c-9 -14 -18 -25 -21 -25 -5 0 5
18 20 38 17 22 18 13 1 -13z m747 8 c13 -16 12 -17 -3 -4 -17 13 -22 21 -14
21 2 0 10 -8 17 -17z m3440 -45 c67 -68 32 -183 -63 -209 -113 -30 -199 87
-138 186 22 36 73 65 113 65 14 0 29 5 33 11 4 8 10 5 17 -7 6 -11 23 -31 38
-46z m-3399 20 c-12 -12 -25 -18 -29 -14 -4 4 3 16 17 26 32 24 40 16 12 -12z
m-1429 7 c-3 -9 -8 -14 -10 -11 -3 3 -2 9 2 15 9 16 15 13 8 -4z m57 -5 c0 -4
-6 -12 -12 -18 -10 -8 -13 -5 -13 13 0 14 5 21 13 18 6 -3 12 -9 12 -13z
m2412 -257 c3 -205 4 -213 26 -235 16 -16 22 -18 22 -8 0 8 5 33 11 54 9 34
12 37 21 22 6 -11 7 -40 3 -69 -8 -64 4 -54 31 26 29 86 49 89 41 6 l-5 -64
24 53 c13 30 30 52 39 52 15 0 15 -19 -1 -67 -6 -23 12 -14 34 17 31 41 42 38
42 -12 l1 -43 24 30 c30 37 52 25 35 -20 -14 -38 -5 -43 25 -15 38 36 52 14
26 -39 -25 -48 -20 -50 25 -16 51 39 73 27 39 -21 -21 -30 -7 -37 26 -13 25
17 30 18 35 5 3 -8 -5 -28 -17 -45 -29 -40 -19 -49 24 -22 28 17 36 19 40 7 7
-18 -77 -104 -109 -112 -17 -4 -23 -12 -20 -23 10 -35 28 -228 24 -256 -5 -34
-1 -48 -34 135 -27 152 -28 155 -81 175 -42 16 -216 128 -320 206 l-42 32
-128 -86 c-121 -81 -239 -145 -249 -134 -3 2 17 14 43 25 26 12 69 38 94 59
26 21 88 67 138 103 l91 65 1 165 c1 91 3 172 4 180 1 8 3 47 5 85 5 107 9 33
12 -202z m1006 201 l-47 -44 56 0 c48 0 54 -2 43 -15 -8 -10 -31 -15 -65 -15
-51 0 -55 -2 -94 -46 -23 -26 -41 -54 -41 -62 0 -24 -34 -91 -45 -92 -17 0
-35 22 -35 44 0 19 260 289 270 279 3 -2 -16 -24 -42 -49z m522 36 c0 -5 -2
-10 -4 -10 -3 0 -8 5 -11 10 -3 6 -1 10 4 10 6 0 11 -4 11 -10z m-1612 -20
c-7 -11 -14 -16 -16 -10 -8 24 -24 8 -20 -20 3 -19 0 -30 -7 -30 -7 0 -10 11
-7 30 3 19 0 30 -8 30 -7 0 -10 -8 -7 -19 2 -10 1 -25 -4 -32 -6 -10 -9 -5
-10 16 -1 17 -3 22 -6 13 -2 -10 -9 -18 -14 -18 -5 0 -9 8 -9 18 0 13 -2 14
-9 4 -4 -8 -11 -13 -15 -13 -25 4 -36 -1 -37 -16 0 -15 -2 -15 -9 2 -8 18 -9
17 -9 -7 -1 -15 -5 -29 -10 -32 -4 -3 -6 7 -4 22 3 23 2 24 -6 7 -5 -11 -10
-26 -10 -32 -1 -19 27 -16 38 5 6 9 11 11 11 5 0 -20 20 -15 20 5 0 10 3 13 8
6 10 -16 44 -14 38 3 -3 7 -1 13 4 13 6 0 10 -4 10 -10 0 -6 27 -10 60 -10 76
0 78 -16 3 -25 -181 -22 -323 -78 -466 -183 -66 -49 -199 -184 -238 -243 -174
-256 -206 -582 -85 -879 70 -174 235 -361 401 -455 82 -46 207 -93 312 -116
l88 -19 -67 5 c-94 8 -185 38 -306 100 -91 47 -103 51 -112 37 -9 -14 -10 -14
-5 4 8 30 -19 51 -42 33 -15 -11 -16 -11 -6 1 10 11 1 25 -51 74 -118 113
-193 225 -251 377 -44 115 -58 210 -52 355 7 180 24 248 96 389 25 50 45 92
45 95 -1 3 6 10 15 17 9 7 13 13 9 13 -3 0 7 14 23 31 53 57 71 87 57 95 -7 4
-10 4 -6 -1 4 -4 0 -14 -10 -21 -28 -21 -34 -16 -9 9 12 12 26 21 31 19 5 -2
16 4 26 13 9 8 20 12 23 8 4 -3 7 2 7 12 0 14 -3 15 -15 5 -22 -18 -18 -3 5
20 l20 20 1 -22 0 -23 12 23 c8 19 8 25 -4 33 -8 5 -9 9 -3 9 6 0 29 16 52 36
23 19 42 32 42 27 0 -4 5 0 11 10 12 20 3 40 -14 31 -7 -4 -10 -5 -7 -1 3 3 8
6 13 6 4 1 16 10 28 22 20 20 22 20 40 3 13 -11 19 -13 19 -4 0 6 7 10 14 7
11 -4 13 -1 9 10 -4 10 -2 14 5 9 6 -3 13 -2 17 4 4 6 10 8 15 5 4 -3 11 2 14
11 4 11 2 14 -6 11 -7 -3 -22 -8 -33 -12 l-20 -7 20 14 c54 39 253 95 343 97
30 1 31 0 20 -19z m2110 7 c22 -26 -2 -35 -81 -32 -84 3 -93 6 -84 30 8 20
149 22 165 2z m-4492 -47 c1 -16 -3 -27 -7 -24 -14 8 -9 54 5 54 1 0 1 -13 2
-30z m43 16 c7 -8 8 -17 3 -20 -6 -3 -12 3 -15 14 -6 24 -4 25 12 6z m1250
-33 c-1 -10 -4 -28 -7 -39 -6 -18 -9 -20 -19 -9 -10 11 -10 17 3 29 8 9 12 20
9 26 -3 5 -1 10 4 10 6 0 11 -8 10 -17z m958 11 c-3 -3 -12 -4 -19 -1 -8 3 -5
6 6 6 11 1 17 -2 13 -5z m283 -55 c0 -28 4 -39 15 -39 11 0 15 12 15 46 0 38
3 45 18 42 13 -2 18 -15 20 -51 2 -33 7 -47 18 -47 10 0 14 12 14 45 0 38 3
45 19 45 17 0 20 -8 23 -52 4 -69 24 -74 33 -8 9 65 29 61 33 -6 5 -75 42 -86
42 -13 0 33 3 40 18 37 14 -3 16 -12 14 -54 -3 -40 0 -53 12 -57 12 -5 17 3
22 34 5 29 11 39 23 37 12 -3 16 -15 16 -48 0 -55 17 -64 28 -16 10 38 18 44
35 23 8 -10 8 -24 1 -52 -8 -29 -8 -40 3 -46 9 -6 17 1 27 26 15 38 23 42 40
22 8 -10 7 -22 -2 -46 -11 -29 -10 -34 8 -47 18 -13 21 -12 37 21 10 19 20 35
22 35 5 0 -2 -79 -9 -89 -2 -5 4 -16 14 -25 18 -16 20 -16 34 4 13 18 15 19
21 5 3 -9 2 -25 -4 -35 -11 -21 13 -50 25 -30 4 6 13 9 20 6 7 -2 18 1 24 7 8
8 11 8 11 -1 0 -7 -9 -21 -20 -32 -12 -12 -18 -25 -15 -31 8 -12 70 -5 90 11
10 8 15 9 15 1 0 -6 -16 -21 -35 -33 -54 -35 -40 -50 33 -34 42 10 42 -6 -2
-34 -21 -13 -33 -26 -30 -35 7 -17 34 -28 34 -13 0 7 5 6 15 -2 11 -9 15 -9
15 -1 0 7 4 10 9 6 5 -3 12 -1 16 5 8 13 25 13 25 0 0 -5 -18 -19 -39 -30 -38
-19 -40 -21 -30 -50 9 -25 15 -29 37 -25 26 5 26 5 5 -6 -12 -6 -24 -19 -26
-28 -2 -9 -9 2 -15 25 -19 65 -91 190 -141 242 -25 27 -36 37 -25 23 12 -14
37 -51 55 -81 19 -31 40 -64 46 -75 20 -31 39 -77 47 -110 4 -16 -12 8 -35 54
-25 50 -48 85 -60 88 -10 3 -36 29 -58 58 -84 111 -197 204 -319 265 -31 15
-112 45 -179 66 l-122 38 -7 43 c-3 23 -4 50 0 59 10 27 26 5 26 -37z m-2532
1 c-7 -10 -14 -17 -17 -15 -4 4 18 35 25 35 2 0 -1 -9 -8 -20z m3848 -7 c-10
-10 -19 5 -10 18 6 11 8 11 12 0 2 -7 1 -15 -2 -18z m-3116 -24 c-7 -11 -14
-18 -17 -15 -3 3 0 12 7 21 18 21 23 19 10 -6z m3840 2 c7 -15 6 -24 -6 -36
-19 -19 -38 -15 -42 9 -9 43 28 64 48 27z m-3775 -2 c8 -12 -24 -51 -36 -43
-9 5 10 54 22 54 4 0 11 -5 14 -11z m-797 -24 c-3 -3 -9 2 -12 12 -6 14 -5 15
5 6 7 -7 10 -15 7 -18z m1192 -7 c0 -13 -23 -5 -28 10 -2 7 2 10 12 6 9 -3 16
-11 16 -16z m1210 2 c0 -4 -26 -13 -57 -18 l-58 -11 50 4 c67 6 93 -10 39 -24
-21 -5 -57 -11 -79 -13 -38 -3 -40 -2 -43 28 -3 27 1 32 29 40 35 10 119 6
119 -6z m1654 12 c8 -13 -11 -35 -23 -28 -16 10 -14 36 3 36 8 0 17 -4 20 -8z
m68 -32 c-4 -42 -22 -66 -22 -29 0 13 -3 35 -7 48 -5 19 -2 22 13 19 15 -3 18
-11 16 -38z m83 20 c0 -8 -8 -16 -17 -18 -13 -2 -18 3 -18 18 0 15 5 20 18 18
9 -2 17 -10 17 -18z m-2442 -4 c1 -5 -19 -24 -45 -43 -57 -40 -62 -30 -11 21
35 35 52 41 56 22z m417 -36 c0 -3 -15 -11 -34 -17 -45 -14 -59 10 -18 31 26
14 52 7 52 -14z m2321 3 c-5 -10 -56 -64 -114 -120 -99 -96 -108 -103 -144
-101 -36 1 -36 1 -6 5 25 3 54 28 140 118 100 104 149 143 124 98z m-2271 -31
c0 -15 3 -37 6 -48 5 -20 8 -21 33 -8 16 8 57 16 92 19 l64 5 -79 -19 c-68
-17 -104 -36 -91 -49 2 -2 36 1 75 8 48 8 75 9 82 2 7 -7 -8 -12 -44 -17 -156
-20 -305 -96 -421 -214 -146 -150 -214 -326 -205 -535 8 -192 72 -324 232
-480 64 -63 81 -84 56 -70 -51 28 -170 152 -209 217 -75 127 -103 230 -102
372 1 114 28 226 81 327 22 43 40 82 40 88 0 6 37 47 82 93 46 45 81 88 80 96
-2 7 1 10 7 6 6 -3 37 9 69 28 32 19 82 42 110 51 30 10 52 24 52 32 0 18 -14
18 -76 -1 -104 -31 -255 -151 -350 -280 -24 -32 -44 -54 -44 -49 0 15 52 93
92 139 l35 39 -26 33 -26 33 -47 -47 c-26 -26 -51 -44 -55 -40 -4 4 16 31 45
60 l52 51 39 -38 39 -38 63 51 c52 42 129 82 223 115 16 5 18 13 12 57 -5 34
-4 49 4 44 5 -3 10 -18 10 -33z m1820 10 c0 -38 -25 -38 -28 0 -2 19 2 28 13
28 10 0 15 -10 15 -28z m-3080 15 c0 -2 -15 -16 -32 -33 l-33 -29 29 33 c28
30 36 37 36 29z m860 -3 c0 -8 -19 -13 -24 -6 -3 5 1 9 9 9 8 0 15 -2 15 -3z
m2693 -6 c-3 -7 -54 -58 -112 -113 l-106 -100 110 113 c60 61 111 112 112 112
1 0 0 -6 -4 -12z m-322 -41 c-18 -18 -37 7 -20 26 12 13 15 13 23 0 5 -9 4
-19 -3 -26z m389 28 c0 -8 -6 -15 -12 -15 -7 0 -67 -52 -133 -114 l-119 -115
-356 6 -355 6 -60 -50 c-65 -53 -98 -71 -89 -48 3 7 21 21 39 29 19 9 40 22
47 29 61 59 36 56 416 50 l347 -5 109 104 c61 56 117 111 125 121 19 21 41 22
41 2z m-4175 -5 c3 -5 2 -10 -4 -10 -5 0 -13 5 -16 10 -3 6 -2 10 4 10 5 0 13
-4 16 -10z m1365 6 c0 -2 -12 -11 -27 -20 l-28 -17 24 20 c23 21 31 25 31 17z
m-780 -55 c-11 -23 -18 -46 -15 -52 4 -5 1 -8 -5 -7 -21 5 -109 -232 -137
-365 -14 -67 -27 -124 -29 -126 -2 -3 -16 6 -30 20 -28 25 -210 386 -201 396
18 17 156 45 250 50 114 6 134 16 106 50 -12 14 -11 15 9 9 12 -4 22 -4 22 1
0 14 41 76 46 70 3 -3 -4 -24 -16 -46z m3340 -36 c-41 -41 -77 -75 -79 -75 -3
0 28 34 69 75 41 41 77 75 79 75 3 0 -28 -34 -69 -75z m-3264 28 c-7 -7 -26 7
-26 19 0 6 6 6 15 -2 9 -7 13 -15 11 -17z m1719 -2 c33 -16 69 -36 80 -46 13
-11 8 -10 -16 4 -20 11 -65 32 -100 45 -35 14 -55 25 -44 26 11 0 47 -13 80
-29z m731 -23 c4 -7 -2 -18 -16 -27 -13 -9 -45 -38 -71 -64 -47 -47 -48 -47
-60 -26 -11 21 -6 27 47 75 59 53 86 65 100 42z m1396 -38 c26 -27 30 -36 25
-68 -4 -23 -17 -46 -34 -61 -23 -20 -34 -23 -82 -18 l-55 6 -124 -117 c-69
-64 -145 -136 -170 -159 l-46 -43 -349 0 c-218 0 -355 -4 -367 -10 -16 -8 -18
-8 -14 5 5 13 53 15 366 15 l359 0 169 168 c150 150 168 171 163 195 -19 101
87 159 159 87z m-3172 16 c0 -3 -4 -8 -10 -11 -5 -3 -10 -1 -10 4 0 6 5 11 10
11 6 0 10 -2 10 -4z m173 -26 c16 -16 27 -35 25 -40 -4 -12 -68 44 -68 59 0
18 14 12 43 -19z m-354 6 c9 -10 -1 -32 -46 -99 -31 -47 -60 -84 -64 -81 -8 4
1 41 20 84 11 24 11 24 8 -7 -2 -18 -2 -33 0 -33 1 0 14 23 28 50 17 34 23 58
19 75 -7 28 15 35 35 11z m-1582 -58 c-2 -13 -4 -5 -4 17 -1 22 1 32 4 23 2
-10 2 -28 0 -40z m2400 -20 c-2 -13 -4 -5 -4 17 -1 22 1 32 4 23 2 -10 2 -28
0 -40z m1431 35 c-38 -2 -98 -2 -135 0 -38 2 -7 3 67 3 74 0 105 -1 68 -3z
m-1478 -45 c0 -49 -5 -47 -14 5 -4 23 -3 37 4 37 5 0 10 -19 10 -42z m-44 -25
c4 -27 3 -43 -3 -43 -11 0 -23 46 -23 83 0 35 18 6 26 -40z m1314 54 c0 -2
-10 -12 -22 -23 l-23 -19 19 23 c18 21 26 27 26 19z m-1959 -20 c-6 -8 -9 -16
-6 -19 3 -2 -2 -5 -10 -5 -13 0 -13 3 2 19 19 21 31 25 14 5z m595 -53 c13
-33 14 -48 6 -56 -13 -13 -25 14 -35 75 -8 48 7 39 29 -19z m-1989 40 c-3 -3
-12 -4 -19 -1 -8 3 -5 6 6 6 11 1 17 -2 13 -5z m-282 -14 c-27 -12 -43 -12
-25 0 8 5 22 9 30 9 10 0 8 -3 -5 -9z m350 0 c25 -11 -1 -11 -35 0 -20 6 -21
8 -5 8 11 0 29 -3 40 -8z m1870 -40 c27 -54 31 -70 14 -70 -10 0 -33 46 -44
93 -11 42 2 32 30 -23z m-356 -9 c-19 -22 -38 -41 -43 -41 -9 0 1 13 48 67 34
40 29 16 -5 -26z m326 -33 c19 -33 23 -48 13 -48 -13 0 -68 90 -68 112 0 18
23 -9 55 -64z m-2097 46 c29 -20 31 -85 2 -114 -45 -45 -140 -9 -140 53 0 65
81 101 138 61z m4571 -10 c2 -10 0 -16 -4 -12 -7 7 -132 -84 -191 -139 l-27
-25 -286 12 c-157 7 -323 11 -368 9 -44 -2 -79 -1 -76 4 2 4 170 7 373 7 227
0 371 4 375 10 3 5 40 33 81 62 42 28 80 63 85 76 10 27 32 25 38 -4z m-2520
-50 c18 -25 29 -50 25 -54 -5 -5 -26 16 -47 46 -46 66 -26 73 22 8z m500 -72
c86 -66 169 -122 184 -126 37 -9 47 -50 18 -77 -26 -24 -27 -30 -3 -22 14 5
13 3 -3 -10 -11 -8 -17 -19 -13 -22 4 -4 3 -16 -2 -26 -7 -12 -6 -19 3 -22 7
-3 5 -6 -5 -6 -15 -1 -18 -10 -18 -54 0 -65 -34 -206 -65 -267 -34 -67 -97
-133 -181 -190 l-75 -50 -32 17 c-50 25 -137 94 -149 117 -9 18 -6 17 18 -5
39 -36 139 -99 157 -99 25 0 131 77 181 130 58 62 90 129 112 239 19 98 15
211 -10 260 -9 17 -30 38 -47 47 -35 18 -111 70 -179 123 -25 20 -37 26 -27
15 10 -13 15 -29 11 -40 -5 -17 -4 -17 8 -3 12 15 16 15 38 -5 39 -34 51 -52
45 -68 -7 -17 -65 -12 -77 6 -11 16 10 34 35 29 17 -3 18 -2 7 5 -8 5 -30 12
-47 15 -29 6 -33 4 -33 -14 0 -12 9 -32 20 -46 11 -14 20 -34 20 -44 0 -14 7
-19 25 -19 19 0 25 5 25 22 0 12 3 19 6 15 4 -3 14 3 23 14 10 13 22 18 34 14
50 -20 -17 -95 -85 -95 -32 0 -39 -3 -36 -17 2 -11 13 -18 28 -19 14 -1 35 -4
48 -8 19 -6 22 -4 22 18 0 15 8 30 20 36 11 6 20 7 20 3 0 -4 6 1 13 11 12 16
14 16 34 -3 11 -11 23 -18 26 -15 2 3 7 -4 10 -16 3 -11 1 -18 -3 -15 -5 3
-13 -3 -19 -12 -6 -10 -11 -14 -11 -9 0 5 -8 2 -17 -5 -9 -8 -14 -9 -10 -2 4
6 1 14 -5 16 -12 5 16 11 35 8 4 0 7 4 7 9 0 6 -11 8 -25 4 -15 -4 -32 -1 -40
6 -13 10 -15 8 -15 -13 0 -14 -4 -27 -10 -29 -5 -2 -3 -23 7 -53 9 -27 18 -56
19 -62 2 -7 16 -13 31 -13 42 0 73 -11 73 -24 0 -9 -16 -11 -54 -8 l-54 4 -11
-35 c-7 -19 -35 -68 -63 -108 -28 -41 -64 -96 -79 -124 -27 -48 -28 -49 -38
-25 -5 14 -41 75 -80 135 -39 61 -71 119 -71 130 0 13 8 5 21 -22 12 -24 25
-43 29 -43 5 0 20 14 35 32 25 30 26 33 9 45 -10 7 -35 13 -56 13 -55 0 -47
16 9 19 26 1 49 4 51 6 5 5 -61 94 -70 95 -4 0 -10 -12 -14 -27 -3 -16 -9 -37
-14 -48 -16 -38 -11 27 6 78 16 46 16 47 60 47 l44 0 0 54 c0 38 6 60 20 79
21 26 28 87 9 87 -5 0 -7 -4 -4 -10 3 -5 2 -10 -3 -10 -6 0 -12 7 -16 15 -3 8
-2 14 2 14 22 -4 32 3 32 21 0 21 -15 27 -25 10 -10 -16 -246 -172 -252 -167
-2 3 17 22 44 42 26 20 47 41 46 46 -2 5 4 9 12 9 21 0 104 62 105 78 0 6 -5
12 -11 12 -5 0 -7 -5 -4 -10 10 -16 -23 -24 -40 -10 -17 14 -21 35 -5 25 6 -3
10 1 10 11 0 14 2 15 17 3 15 -12 16 -12 10 4 -5 14 -2 20 13 24 11 3 20 9 20
14 0 7 66 56 78 58 2 1 74 -52 161 -117z m-2696 30 c24 -49 101 -67 147 -35
l25 17 -19 -22 c-15 -17 -30 -22 -65 -22 -68 1 -113 44 -110 107 2 27 2 27 6
3 2 -14 9 -36 16 -48z m2152 11 c21 -28 32 -49 25 -51 -6 -2 -12 -2 -13 -1 -1
2 -17 23 -35 46 -34 44 -38 53 -22 53 5 0 25 -21 45 -47z m-595 7 c-6 -11 -13
-20 -16 -20 -2 0 0 9 6 20 6 11 13 20 16 20 2 0 0 -9 -6 -20z m526 -8 c11 -10
29 -30 38 -45 31 -47 -5 -31 -42 18 -34 47 -32 57 4 27z m-36 -43 c26 -25 40
-44 33 -46 -10 -4 -93 71 -93 84 0 11 21 -2 60 -38z m-335 -32 c6 -5 1 -6 -11
-2 -18 5 -24 -1 -38 -36 -9 -22 -14 -50 -11 -60 4 -13 2 -19 -9 -19 -19 0 -19
-2 -1 51 20 55 44 93 53 82 4 -4 12 -11 17 -16z m41 2 c37 -23 44 -32 17 -22
-17 6 -17 5 0 -14 9 -11 17 -26 17 -34 0 -12 2 -12 9 1 6 8 7 19 4 25 -3 5 0
5 6 -1 10 -9 7 -26 -12 -81 -14 -38 -28 -90 -32 -116 -4 -26 -11 -49 -15 -52
-9 -6 5 83 25 150 17 61 13 81 -24 112 -18 16 -21 23 -11 23 9 1 5 6 -10 15
-14 8 -21 14 -16 15 5 0 24 -9 42 -21z m268 -28 c17 -17 25 -31 20 -31 -14 0
-84 60 -84 71 0 15 30 -4 64 -40z m1761 9 c-3 -5 -12 -10 -18 -10 -7 0 -6 4 3
10 19 12 23 12 15 0z m-629 -22 c17 -27 -130 -117 -154 -94 -12 13 108 105
140 106 4 0 10 -5 14 -12z m-2656 -8 c0 -5 -9 -10 -19 -10 -11 0 -23 5 -26 10
-4 6 5 10 19 10 14 0 26 -4 26 -10z m1516 -41 c3 -5 2 -9 -2 -9 -12 0 -74 44
-74 52 0 9 68 -30 76 -43z m1713 10 c-37 -47 -46 -52 -86 -47 -27 4 -26 4 12
16 23 6 54 25 70 42 40 42 42 37 4 -11z m-1618 -10 l-9 -34 -1 31 c-1 17 2 34
6 37 12 13 14 -1 4 -34z m1847 34 c-10 -2 -26 -2 -35 0 -10 3 -2 5 17 5 19 0
27 -2 18 -5z m557 -3 c-7 -11 -196 -12 -405 -1 -119 7 -103 8 138 9 180 1 271
-1 267 -8z m-725 -3 c0 -2 -17 -19 -37 -38 l-38 -34 34 38 c33 34 41 42 41 34z
m-600 -62 c0 -8 -17 -23 -37 -33 -41 -21 -133 -46 -140 -38 -9 9 69 62 114 77
51 17 63 16 63 -6z m-1490 -6 c0 -24 -23 -21 -28 4 -2 10 3 17 12 17 10 0 16
-9 16 -21z m1824 13 c3 -5 -15 -18 -39 -30 -38 -18 -45 -19 -56 -6 -14 17 -14
18 31 31 45 14 58 15 64 5z m-1131 -31 c13 -16 35 -31 47 -33 13 -1 25 -8 27
-14 3 -8 -8 -9 -36 -4 -50 9 -119 80 -77 80 8 0 25 -13 39 -29z m1312 9 c-3
-5 -23 -9 -43 -9 l-37 2 40 7 c22 4 41 8 43 9 2 0 0 -3 -3 -9z m1196 -59 c34
-34 38 -77 12 -121 -30 -51 -83 -63 -126 -30 -25 20 -28 20 -56 5 -22 -11 -62
-15 -157 -15 l-126 0 -60 50 -60 50 -121 0 -121 0 -36 -32 c-32 -30 -32 -29 5
10 l39 42 119 0 119 0 61 -51 61 -51 127 4 c151 4 169 13 169 84 0 34 5 47 26
63 39 31 89 28 125 -8z m-1684 3 c5 -15 -36 -31 -112 -45 -60 -12 -88 -8 -72
8 13 12 142 53 161 50 11 -1 21 -7 23 -13z m-2280 -56 c-2 -13 -4 -3 -4 22 0
25 2 35 4 23 2 -13 2 -33 0 -45z m2610 49 c5 -6 -13 -11 -79 -22 -40 -6 -58 8
-31 24 18 10 99 8 110 -2z m-2127 -82 c-7 -78 -7 -79 -8 -20 -2 52 6 112 13
103 1 -2 -1 -39 -5 -83z m1297 33 c-3 -8 -6 -5 -6 6 -1 11 2 17 5 13 3 -3 4
-12 1 -19z m509 -9 c3 -6 0 -15 -7 -20 -20 -12 -144 -31 -171 -27 -21 4 -19 6
14 21 21 10 61 21 90 26 29 5 56 9 60 10 4 0 10 -4 14 -10z m324 2 c0 -9 -80
-19 -100 -13 -29 10 -3 22 45 22 30 0 55 -4 55 -9z m145 -21 c-28 -12 -45 -12
-45 0 0 6 15 10 33 9 27 0 29 -2 12 -9z m-1782 -17 c-7 -2 -21 -2 -30 0 -10 3
-4 5 12 5 17 0 24 -2 18 -5z m-903 -12 c0 -20 -13 -41 -25 -41 -17 0 -38 27
-30 40 8 12 55 13 55 1z m2505 1 l-40 -6 40 -6 40 -7 -52 -2 c-49 -1 -71 8
-56 23 3 3 29 5 57 4 50 -1 50 -1 11 -6z m-625 -16 c0 -3 -4 -8 -10 -11 -5 -3
-10 -1 -10 4 0 6 5 11 10 11 6 0 10 -2 10 -4z m348 -18 c-5 -16 -118 -29 -168
-21 l-35 6 30 13 c41 18 178 19 173 2z m762 -9 c0 -7 -342 -20 -349 -13 -15
14 33 19 183 19 91 0 166 -3 166 -6z m-2092 -6 c-10 -2 -28 -2 -40 0 -13 2 -5
4 17 4 22 1 32 -1 23 -4z m1628 -8 c14 -13 10 -15 -30 -15 -43 0 -63 10 -49
24 12 12 64 6 79 -9z m-2518 -27 c-2 -19 -10 -24 -45 -26 -37 -3 -43 0 -43 16
0 27 8 32 52 32 35 0 39 -2 36 -22z m657 11 c22 -6 17 -7 -22 -3 l-53 5 0 -41
0 -40 49 0 c39 0 51 4 54 18 4 13 5 11 6 -5 1 -21 -3 -23 -59 -23 l-60 0 0 50
c0 48 1 50 28 49 15 -1 41 -5 57 -10z m2670 -29 l39 -40 153 0 c118 0 159 3
176 15 43 28 98 -23 63 -58 -17 -17 -49 -13 -67 9 -9 11 -49 14 -184 14 l-172
0 -28 -42 c-17 -26 -30 -37 -33 -29 -2 7 1 18 7 24 6 6 11 22 11 37 -1 25 -1
25 -17 5 -13 -16 -15 -17 -10 -2 4 9 5 17 3 17 -3 0 -11 3 -20 6 -9 3 -16 1
-16 -6 0 -6 4 -9 9 -6 5 3 11 -5 13 -18 4 -20 0 -23 -24 -24 -15 0 -28 4 -28
9 0 5 -7 9 -16 9 -11 0 -14 6 -10 23 6 22 6 22 -6 -1 -9 -19 -8 -29 6 -53 9
-16 13 -29 8 -29 -11 0 -47 41 -55 63 -6 16 -27 17 -252 17 -162 0 -244 3
-240 10 4 6 100 10 255 10 l249 0 6 23 c11 36 45 57 95 57 40 0 51 -5 85 -40z
m-2000 0 c3 -5 1 -10 -4 -10 -6 0 -11 5 -11 10 0 6 2 10 4 10 3 0 8 -4 11 -10z
m893 -2 c-3 -9 -30 -13 -88 -13 -58 0 -85 4 -87 13 -4 9 18 12 87 12 69 0 91
-3 88 -12z m309 -5 c-3 -2 -23 -4 -46 -5 -45 0 -57 -17 -13 -19 25 -2 25 -2 3
-6 -27 -5 -44 8 -36 28 4 10 18 13 51 11 25 -2 43 -6 41 -9z m-1800 -40 c-3
-10 -5 -2 -5 17 0 19 2 27 5 18 2 -10 2 -26 0 -35z m126 40 c-7 -2 -19 -2 -25
0 -7 3 -2 5 12 5 14 0 19 -2 13 -5z m-865 -49 c4 -27 -20 -37 -44 -19 -16 11
-16 15 -5 29 19 22 45 16 49 -10z m-71 -86 c-2 -18 -4 -4 -4 32 0 36 2 50 4
33 2 -18 2 -48 0 -65z m2277 86 c9 -3 16 -13 16 -21 0 -12 -9 -14 -47 -9 -105
14 -123 18 -123 27 0 10 129 13 154 3z m271 -15 c-16 -4 -24 -7 -16 -8 8 0 11
-4 8 -7 -8 -9 -38 16 -32 25 2 4 19 5 37 2 l33 -5 -30 -7z m-1672 -201 c38
-85 89 -159 169 -245 40 -43 64 -70 52 -60 -28 24 -43 21 -50 -8 -3 -14 -9
-25 -13 -25 -18 0 -19 14 -4 45 l15 32 -60 72 c-94 112 -174 286 -171 372 0
13 9 -10 19 -52 10 -41 30 -101 43 -131z m-446 140 c-2 -13 -4 -5 -4 17 -1 22
1 32 4 23 2 -10 2 -28 0 -40z m1806 10 c28 -6 46 -15 44 -22 -5 -13 -16 -12
-109 10 -38 9 -68 20 -68 25 0 9 59 4 133 -13z m315 5 c-10 -2 -26 -2 -35 0
-10 3 -2 5 17 5 19 0 27 -2 18 -5z m1206 -16 c22 -16 18 -65 -6 -81 -22 -14
-52 2 -56 30 -3 18 -11 19 -140 14 -133 -5 -140 -6 -171 -32 -51 -44 -110 -42
-159 5 l-33 32 -245 4 c-134 1 -242 7 -239 11 3 4 114 5 247 3 l243 -5 30 -28
c17 -16 42 -32 57 -35 35 -9 89 9 118 40 23 24 29 25 149 25 95 1 131 4 145
15 24 18 37 19 60 2z m-1566 -43 c36 -10 62 -22 62 -30 0 -10 -10 -10 -52 3
-56 16 -108 40 -108 49 0 3 8 3 18 0 9 -2 45 -12 80 -22z m330 -20 c14 -15 14
-16 -3 -13 -10 2 -20 10 -23 17 -5 17 6 15 26 -4z m-295 -63 c6 -6 8 -13 5
-16 -7 -8 -133 49 -142 64 -8 13 121 -32 137 -48z m-1415 23 c-3 -2 -20 -6
-39 -9 l-34 -6 35 18 c19 10 37 15 39 10 1 -4 1 -10 -1 -13z m2052 -49 l54
-55 296 0 295 0 65 -56 c85 -73 104 -82 128 -61 25 23 78 21 102 -3 25 -25 25
-41 0 -73 -37 -47 -103 -43 -116 8 -3 14 -10 25 -15 25 -5 0 -45 32 -88 70
l-80 70 -292 0 -292 0 -62 55 c-57 49 -68 55 -108 55 -25 0 -49 5 -52 10 -4 6
16 10 52 10 58 0 59 -1 113 -55z m-722 3 c69 -38 67 -37 59 -44 -7 -7 -102 43
-118 63 -17 20 -4 16 59 -19z m389 2 c26 -16 40 -30 32 -30 -14 0 -89 46 -89
55 0 9 9 5 57 -25z m-1789 8 c-6 -18 -28 -21 -28 -4 0 9 7 16 16 16 9 0 14 -5
12 -12z m1400 -70 c24 -17 41 -32 39 -35 -7 -6 -54 19 -97 52 -30 23 -31 26
-10 20 14 -4 44 -21 68 -37z m358 -29 c19 -12 33 -24 30 -26 -5 -6 -67 35 -78
51 -4 6 -4 15 0 21 4 6 8 3 10 -7 2 -9 19 -27 38 -39z m344 -22 l63 -57 238 0
237 0 120 -116 121 -115 31 16 c26 13 35 14 57 3 35 -17 53 -46 35 -57 -8 -4
-13 -12 -12 -17 1 -5 -9 -18 -24 -28 -21 -16 -30 -18 -51 -8 -16 8 -25 20 -25
35 0 18 -34 56 -126 143 l-126 119 -97 6 c-53 4 -163 7 -245 8 l-149 1 -56 53
c-49 47 -63 55 -109 61 -69 9 -68 24 2 16 47 -5 60 -12 116 -63z m-1972 42
c-3 -9 -71 -39 -88 -39 -8 1 74 50 83 50 5 0 7 -5 5 -11z m1272 -72 c0 -9 -26
5 -77 42 -12 9 -23 22 -23 29 0 7 23 -4 50 -25 28 -20 50 -41 50 -46z m-365
44 c3 -5 1 -12 -5 -16 -5 -3 -10 1 -10 9 0 18 6 21 15 7z m-70 -11 c-3 -5 -16
-15 -28 -21 -19 -9 -19 -8 3 10 28 23 34 26 25 11z m365 -39 c25 -21 42 -42
39 -45 -4 -4 -28 14 -55 38 -60 55 -46 61 16 7z m-546 20 c3 -5 -2 -8 -11 -7
-10 0 -20 -9 -24 -24 -6 -21 -7 -22 -8 -4 -2 31 30 57 43 35z m30 -20 c3 -5
-1 -14 -8 -20 -12 -10 -13 -8 -9 8 6 23 9 25 17 12z m117 -31 c7 0 10 -2 7 -5
-11 -12 -38 9 -37 29 0 21 0 21 9 -1 5 -13 15 -23 21 -23z m784 4 c40 -37 24
-29 -28 13 -16 13 -25 23 -20 23 4 0 26 -16 48 -36z m371 -34 l72 -70 255 0
c141 0 258 -3 260 -7 3 -5 -115 -7 -261 -5 l-267 3 -65 64 c-58 57 -70 65
-105 66 -22 1 -51 5 -65 9 -18 6 -8 8 39 9 l64 1 73 -70z m-1212 38 c-10 -13
-19 -24 -19 -25 -1 -1 -6 6 -12 16 -10 16 -9 18 6 14 11 -3 22 0 25 6 4 6 10
11 13 11 3 0 -2 -10 -13 -22z m-939 -30 c16 -25 21 -37 11 -29 -16 14 -51 71
-43 71 3 0 17 -19 32 -42z m1365 7 c19 -19 30 -35 24 -35 -11 1 -33 18 -58 48
-31 36 -3 25 34 -13z m-41 -31 c12 -15 21 -31 21 -37 0 -13 -38 21 -51 45 -15
28 7 22 30 -8z m-476 -43 c37 -22 71 -41 75 -41 4 0 40 20 80 44 40 25 72 43
72 41 0 -10 -136 -95 -151 -95 -15 0 -133 71 -154 92 -13 14 -7 11 78 -41z
m901 0 c34 -37 11 -32 -25 5 -21 23 -26 33 -14 26 11 -5 29 -20 39 -31z
m-1448 -3 c24 -27 25 -29 4 -13 -14 11 -28 25 -32 30 -8 10 -28 -11 -28 -29 0
-4 19 -26 42 -47 23 -21 40 -41 37 -43 -3 -3 -27 17 -54 44 -48 48 -48 50 -30
70 24 26 26 26 61 -12z m986 15 c19 -17 24 -43 8 -43 -5 0 -16 14 -25 30 -17
33 -11 38 17 13z m-32 -67 c-13 -13 -19 -6 -30 35 l-9 34 24 -30 c16 -19 21
-33 15 -39z m-2308 42 c-9 -9 -15 -9 -24 0 -9 9 -7 12 12 12 19 0 21 -3 12
-12z m1139 -45 c49 -70 87 -109 154 -163 126 -100 324 -196 465 -226 64 -13
64 -14 12 -8 -139 13 -385 137 -525 264 -69 62 -163 180 -144 180 2 0 19 -21
38 -47z m1129 -19 c0 -18 -5 -18 -24 2 -9 8 -16 25 -16 37 1 22 1 22 20 -2 11
-13 20 -29 20 -37z m720 24 c53 -35 65 -54 28 -43 -29 9 -88 53 -88 66 0 14 6
12 60 -23z m-770 -45 c0 -7 -7 -13 -15 -13 -10 0 -15 10 -15 32 0 30 1 31 15
12 8 -10 15 -25 15 -31z m-722 0 c-2 -10 -11 -19 -21 -21 -16 -3 -17 -1 -5 17
16 25 31 27 26 4z m589 -25 c-3 -7 -5 -2 -5 12 0 14 2 19 5 13 2 -7 2 -19 0
-25z m63 17 c0 -8 -2 -15 -4 -15 -2 0 -6 7 -10 15 -3 8 -1 15 4 15 6 0 10 -7
10 -15z m1174 -17 c3 -13 6 -38 6 -55 0 -30 3 -33 29 -33 29 0 30 2 33 52 4
71 26 76 30 6 3 -52 4 -53 36 -56 l32 -3 0 55 c0 43 3 56 15 56 12 0 15 -13
15 -56 0 -47 3 -57 20 -61 25 -7 26 -19 3 -32 -10 -6 -12 -11 -5 -11 6 0 12
-4 12 -9 0 -4 -11 -6 -24 -4 -16 3 -23 10 -19 19 5 15 -3 17 -52 14 -17 0 -50
3 -74 9 -31 7 -49 6 -62 -2 -10 -6 -20 -9 -21 -7 -2 3 -2 35 0 73 4 67 15 86
26 45z m-3279 -8 c-3 -5 -11 -10 -16 -10 -6 0 -7 5 -4 10 3 6 11 10 16 10 6 0
7 -4 4 -10z m1420 -27 c-3 -9 2 -24 11 -34 24 -27 -3 -25 -35 2 -23 19 -23 20
-6 39 20 22 40 17 30 -7z m255 -108 c0 -8 -4 -15 -10 -15 -5 0 -7 7 -4 15 4 8
8 15 10 15 2 0 4 -7 4 -15z m1445 -124 c27 -28 44 -51 38 -51 -15 0 -183 159
-183 172 0 12 79 -54 145 -121z m298 102 c-13 -2 -33 -2 -45 0 -13 2 -3 4 22
4 25 0 35 -2 23 -4z m-333 -201 c0 -14 -18 1 -152 127 -27 24 -48 51 -48 59 0
7 45 -28 100 -78 55 -51 100 -100 100 -108z m760 183 c0 -12 -15 -15 -75 -15
-60 0 -75 3 -75 15 0 12 15 15 75 15 60 0 75 -3 75 -15z m-2553 -1 c-3 -3 -12
-4 -19 -1 -8 3 -5 6 6 6 11 1 17 -2 13 -5z m1743 -254 c0 -19 -216 196 -236
235 -9 18 34 -19 111 -95 69 -69 125 -131 125 -140z m465 250 c3 -5 -1 -10 -9
-10 -8 0 -18 5 -21 10 -3 6 1 10 9 10 8 0 18 -4 21 -10z m-77 -27 c-10 -2 -26
-2 -35 0 -10 3 -2 5 17 5 19 0 27 -2 18 -5z m75 -10 c-7 -2 -19 -2 -25 0 -7 3
-2 5 12 5 14 0 19 -2 13 -5z m-2148 -14 c10 -14 1 -21 -19 -13 -9 3 -13 10
-10 15 7 12 21 11 29 -2z m2155 -28 c0 -5 -9 -7 -20 -4 -11 3 -20 7 -20 9 0 2
9 4 20 4 11 0 20 -4 20 -9z m210 -5 c0 -11 -19 -15 -25 -6 -3 5 1 10 9 10 9 0
16 -2 16 -4z m140 -5 c0 -11 -26 -22 -34 -14 -12 12 -5 23 14 23 11 0 20 -4
20 -9z m-3710 -41 c-24 -15 -37 -11 -16 5 11 8 22 12 25 9 3 -3 -1 -9 -9 -14z
m3268 13 c-10 -2 -28 -2 -40 0 -13 2 -5 4 17 4 22 1 32 -1 23 -4z m92 -13 c0
-5 -9 -10 -21 -10 -11 0 -17 5 -14 10 3 6 13 10 21 10 8 0 14 -4 14 -10z
m-1687 -27 c-7 -2 -19 -2 -25 0 -7 3 -2 5 12 5 14 0 19 -2 13 -5z m1595 -50
c-10 -2 -26 -2 -35 0 -10 3 -2 5 17 5 19 0 27 -2 18 -5z m95 0 c-7 -2 -21 -2
-30 0 -10 3 -4 5 12 5 17 0 24 -2 18 -5z m-3304 -42 c-15 -5 -22 6 -14 19 6 9
10 9 16 -1 5 -8 4 -15 -2 -18z m784 -2 c1 3 11 0 21 -6 17 -9 14 -11 -18 -15
-40 -4 -54 5 -37 26 6 7 10 15 8 17 -1 2 4 -3 11 -11 7 -8 14 -13 15 -11z
m2510 4 c-7 -2 -19 -2 -25 0 -7 3 -2 5 12 5 14 0 19 -2 13 -5z m-528 -43 c0
-35 -41 -41 -54 -8 -12 31 -5 40 27 36 21 -2 27 -8 27 -28z m-291 -77 c145
-142 197 -195 191 -201 -3 -3 -40 28 -83 69 -42 40 -110 105 -149 143 -67 64
-84 86 -67 86 4 0 52 -44 108 -97z m819 80 c-7 -2 -19 -2 -25 0 -7 3 -2 5 12
5 14 0 19 -2 13 -5z m-869 -147 c82 -78 147 -148 145 -154 -4 -10 -309 279
-309 292 0 16 27 -6 164 -138z m799 137 c-7 -2 -21 -2 -30 0 -10 3 -4 5 12 5
17 0 24 -2 18 -5z m67 -23 c13 -8 13 -10 -2 -10 -9 0 -20 5 -23 10 -8 13 5 13
25 0z m318 -2 c-3 -7 -20 -13 -38 -13 -18 0 -35 6 -37 13 -3 8 8 12 37 12 29
0 40 -4 38 -12z m-1244 -168 c75 -68 136 -130 136 -138 0 -8 -74 57 -165 143
-91 87 -165 159 -165 162 0 7 50 -36 194 -167z m839 153 c-7 -2 -21 -2 -30 0
-10 3 -4 5 12 5 17 0 24 -2 18 -5z m-981 -181 c-5 -14 -6 -14 -10 -1 -3 7 -36
46 -73 85 -95 99 -87 106 10 10 54 -54 77 -84 73 -94z m528 138 c0 -16 -2 -30
-4 -30 -2 0 -6 14 -8 30 -3 17 -1 30 4 30 4 0 8 -13 8 -30z m543 23 c-7 -2
-19 -2 -25 0 -7 3 -2 5 12 5 14 0 19 -2 13 -5z m-3207 -18 c-21 -16 -32 -13
-21 4 3 6 14 11 23 11 15 -1 15 -2 -2 -15z m1361 -1 c-3 -3 -12 -4 -19 -1 -8
3 -5 6 6 6 11 1 17 -2 13 -5z m46 -11 c-7 -2 -19 -2 -25 0 -7 3 -2 5 12 5 14
0 19 -2 13 -5z m602 -102 c27 -28 45 -51 39 -51 -5 0 -45 37 -89 82 -47 47
-63 68 -40 50 22 -17 62 -53 90 -81z m1128 102 c-7 -2 -19 -2 -25 0 -7 3 -2 5
12 5 14 0 19 -2 13 -5z m-1680 -10 c-7 -2 -19 -2 -25 0 -7 3 -2 5 12 5 14 0
19 -2 13 -5z m75 -10 c-10 -2 -26 -2 -35 0 -10 3 -2 5 17 5 19 0 27 -2 18 -5z
m391 -117 c25 -25 43 -48 40 -50 -3 -3 -45 36 -95 86 -60 62 -73 78 -39 51 28
-23 70 -62 94 -87z m1291 114 c0 -5 -7 -10 -16 -10 -8 0 -12 5 -9 10 3 6 10
10 16 10 5 0 9 -4 9 -10z m-3 -36 c-3 -3 -12 -4 -19 -1 -8 3 -5 6 6 6 11 1 17
-2 13 -5z m-1387 -93 c36 -32 62 -62 59 -65 -3 -4 -42 28 -85 69 -91 88 -71
85 26 -4z m1390 69 c0 -5 -10 -10 -22 -9 -22 0 -22 1 -3 9 11 5 21 9 23 9 1 1
2 -3 2 -9z m-83 -6 c-3 -3 -12 -4 -19 -1 -8 3 -5 6 6 6 11 1 17 -2 13 -5z
m-3072 -24 c10 -11 16 -20 13 -20 -3 0 -13 9 -23 20 -10 11 -16 20 -13 20 3 0
13 -9 23 -20z m43 9 c-2 -6 -8 -10 -13 -10 -5 0 -11 4 -13 10 -2 6 4 11 13 11
9 0 15 -5 13 -11z m832 -24 c0 -8 -3 -16 -7 -18 -5 -3 -8 5 -8 18 0 13 3 21 8
18 4 -2 7 -10 7 -18z m135 15 c3 -6 -1 -7 -9 -4 -18 7 -21 14 -7 14 6 0 13 -4
16 -10z m2155 -9 c0 -12 -28 -22 -34 -12 -3 5 -3 11 1 15 9 9 33 7 33 -3z
m220 -21 c23 -23 26 -49 8 -72 -29 -35 -82 -26 -98 17 -8 22 -15 25 -60 25
-27 0 -50 5 -50 10 0 6 26 10 58 10 34 1 65 6 76 15 27 20 42 19 66 -5z
m-2525 -30 c4 -6 -2 -7 -16 -1 -13 4 -25 14 -27 20 -3 10 0 10 16 2 12 -6 24
-16 27 -21z m392 4 c-3 -3 -12 -4 -19 -1 -8 3 -5 6 6 6 11 1 17 -2 13 -5z
m1908 -4 c-3 -5 -12 -7 -20 -3 -21 7 -19 13 6 13 11 0 18 -4 14 -10z m-1862
-7 c-7 -2 -19 -2 -25 0 -7 3 -2 5 12 5 14 0 19 -2 13 -5z m47 -7 c0 -2 -9 -6
-20 -9 -11 -3 -18 -1 -14 4 5 9 34 13 34 5z m109 -22 c8 -7 -54 -2 -79 6 -17
6 -9 7 25 3 28 -3 52 -7 54 -9z m-138 -34 c23 -13 24 -26 3 -47 -14 -14 -16
-14 -29 3 -16 21 -19 37 -8 47 8 9 11 9 34 -3z m976 -11 c16 -16 5 -39 -17
-39 -23 0 -34 16 -26 35 6 18 28 19 43 4z m-1244 -6 c-7 -2 -19 -2 -25 0 -7 3
-2 5 12 5 14 0 19 -2 13 -5z m1239 -78 c0 -5 -5 -11 -11 -13 -6 -2 -11 4 -11
13 0 9 5 15 11 13 6 -2 11 -8 11 -13z m-1986 -73 c16 -15 25 -17 40 -10 18 10
18 10 2 -7 -16 -17 -18 -16 -57 14 -23 18 -41 35 -41 37 0 8 33 -13 56 -34z
m2752 -4 c7 -7 11 -23 11 -37 -1 -18 -3 -21 -6 -8 -3 10 -16 22 -29 27 -13 5
-24 14 -24 20 0 14 33 13 48 -2z m-55 -35 c4 -24 4 -26 -8 -10 -7 10 -27 18
-51 19 l-39 1 45 7 c25 4 46 8 46 8 1 1 4 -10 7 -25z m-2592 -39 c27 -20 49
-38 49 -40 0 -7 -50 23 -85 52 -47 37 -18 28 36 -12z m157 -102 c23 -13 42
-26 42 -29 0 -8 -113 57 -130 75 -11 11 -6 10 15 -3 17 -11 49 -30 73 -43z
m2217 -5 c46 -41 52 -43 82 -34 25 8 37 7 57 -7 30 -19 33 -42 10 -74 -26 -37
-94 -25 -94 17 0 11 5 9 16 -7 8 -12 24 -22 35 -22 29 0 35 28 10 53 -18 19
-24 20 -42 9 -24 -15 -28 -13 -96 52 -41 38 -52 56 -35 56 4 0 30 -20 57 -43z
m-2580 -30 c16 -15 -48 20 -70 38 -11 9 -2 7 20 -6 22 -12 45 -26 50 -32z
m2454 -73 c42 -38 46 -45 45 -86 -3 -157 -218 -175 -231 -19 -4 52 10 85 49
114 40 30 48 12 10 -22 -17 -16 -34 -41 -38 -55 -8 -32 11 -82 40 -101 41 -30
115 -12 135 32 21 45 13 74 -29 113 -32 30 -40 43 -39 71 1 21 3 27 6 14 3
-11 26 -39 52 -61z m-2359 21 c0 -3 -18 4 -40 15 -22 11 -40 23 -40 25 0 3 18
-4 40 -15 22 -11 40 -23 40 -25z m1195 25 c-10 -11 -28 -19 -39 -19 -20 2 -20
2 1 6 12 2 27 11 33 19 7 8 15 14 18 14 3 0 -3 -9 -13 -20z m1353 -72 c8 -10
23 -18 34 -18 10 0 18 -5 18 -11 0 -6 -12 -9 -27 -7 -33 4 -69 49 -58 75 8 17
8 17 13 -2 2 -11 11 -28 20 -37z m-2498 16 c0 -2 -9 0 -20 6 -11 6 -20 13 -20
16 0 2 9 0 20 -6 11 -6 20 -13 20 -16z m487 -5 c43 -17 116 -44 163 -60 47
-16 78 -29 68 -29 -32 0 -344 117 -316 119 4 1 42 -13 85 -30z m-417 -35 c0
-2 -9 0 -20 6 -11 6 -20 13 -20 16 0 2 9 0 20 -6 11 -6 20 -13 20 -16z m-179
6 c10 -6 19 -19 19 -30 0 -16 -26 -40 -44 -40 -8 0 -36 31 -36 40 0 9 28 40
36 40 3 0 14 -5 25 -10z m2387 -42 c4 -20 -24 -48 -49 -48 -11 0 -24 11 -31
26 -11 23 -10 29 11 45 21 17 26 18 45 6 12 -8 22 -21 24 -29z m-2308 -8 c8
-5 11 -10 5 -10 -5 0 -17 5 -25 10 -8 5 -10 10 -5 10 6 0 17 -5 25 -10z m915
-37 c20 -15 19 -15 -5 -9 -14 3 -31 6 -38 6 -7 0 -10 5 -7 10 9 14 27 12 50
-7z m225 -2 c0 -6 -4 -13 -10 -16 -5 -3 -10 -2 -10 4 0 5 -8 12 -17 14 -11 3
-7 5 10 6 15 0 27 -3 27 -8z m-1070 -26 c13 -14 21 -25 18 -25 -2 0 -15 11
-28 25 -13 14 -21 25 -18 25 2 0 15 -11 28 -25z m2237 10 c-2 -5 -21 -10 -42
-10 -21 0 -40 5 -42 10 -2 6 16 10 42 10 26 0 44 -4 42 -10z m-1320 -1 c-3 -3
-12 -4 -19 -1 -8 3 -5 6 6 6 11 1 17 -2 13 -5z m172 -20 c8 -7 -64 -3 -104 6
-31 7 -24 7 30 3 39 -3 72 -7 74 -9z m-929 -24 c8 -5 11 -10 5 -10 -5 0 -17 5
-25 10 -8 5 -10 10 -5 10 6 0 17 -5 25 -10z m126 -66 c18 -14 18 -14 -6 -3
-31 14 -36 19 -24 19 6 0 19 -7 30 -16z m1509 -108 c44 -43 45 -45 10 -18 -22
17 -58 50 -80 74 -48 52 -6 18 70 -56z m-1470 4 c3 -6 -1 -7 -9 -4 -18 7 -21
14 -7 14 6 0 13 -4 16 -10z m180 0 c3 -6 -1 -7 -9 -4 -18 7 -21 14 -7 14 6 0
13 -4 16 -10z m1300 -164 c33 -32 53 -55 45 -50 -25 13 -230 208 -230 219 0 5
28 -18 63 -51 34 -33 89 -86 122 -118z m-1418 158 c-3 -3 -12 -4 -19 -1 -8 3
-5 6 6 6 11 1 17 -2 13 -5z m1677 -24 c8 0 19 -7 26 -15 11 -13 10 -15 -1 -11
-8 2 -26 7 -41 10 -21 5 -25 10 -21 27 5 18 7 19 15 5 5 -9 15 -16 22 -16z
m-1644 10 c0 -5 -2 -10 -4 -10 -3 0 -8 5 -11 10 -3 6 -1 10 4 10 6 0 11 -4 11
-10z m1248 -133 c45 -44 81 -82 79 -84 -5 -5 -153 132 -197 182 l-35 40 35
-29 c19 -15 72 -64 118 -109z m-1232 87 l39 -36 -42 32 c-39 29 -50 40 -39 40
2 0 21 -16 42 -36z m1644 -59 c-13 -16 -55 -20 -64 -7 -3 5 8 7 23 4 16 -2 32
1 35 7 4 6 10 11 13 11 3 0 0 -7 -7 -15z m-1256 -21 c3 -8 2 -12 -4 -9 -6 3
-10 10 -10 16 0 14 7 11 14 -7z m-93 -89 c13 -16 -2 -5 -34 25 -31 30 -57 56
-57 58 0 9 71 -56 91 -83z m743 -9 c47 -35 62 -76 47 -126 -17 -58 -61 -90
-123 -90 -44 0 -54 4 -84 34 -30 30 -34 40 -34 85 0 46 4 55 40 91 22 22 40
45 40 51 0 5 5 7 10 4 17 -11 11 -43 -10 -50 -60 -19 -78 -104 -32 -155 69
-78 215 -2 168 88 -8 15 -28 40 -45 56 -30 29 -39 55 -23 70 4 4 8 -1 10 -12
2 -11 18 -32 36 -46z m-604 24 c12 -16 19 -30 16 -30 -2 0 -14 14 -26 30 -12
17 -19 30 -16 30 2 0 14 -13 26 -30z m-237 -49 c-2 -3 -16 8 -31 24 l-27 28
31 -24 c17 -13 30 -26 27 -28z m182 -131 c66 -66 117 -120 115 -120 -3 0 -59
54 -125 120 -66 66 -117 120 -115 120 3 0 59 -54 125 -120z m615 81 c17 -33
11 -41 -31 -41 -36 0 -40 -2 -29 -15 15 -18 42 -19 58 -3 7 7 12 8 12 2 0 -17
-23 -34 -45 -34 -28 0 -45 18 -45 49 0 51 58 81 80 42z m424 -1 c20 -7 20 -8
-6 -20 -23 -11 -31 -10 -53 4 -14 9 -25 20 -25 25 0 10 49 5 84 -9z m-999 -80
c21 -22 37 -40 34 -40 -3 0 -23 18 -44 40 -21 22 -37 40 -34 40 3 0 23 -18 44
-40z m-105 -55 c19 -19 32 -35 29 -35 -3 0 -20 16 -39 35 -19 19 -32 35 -29
35 3 0 20 -16 39 -35z m233 -90 c30 -37 33 -43 11 -22 -17 15 -34 24 -39 20
-4 -5 -5 -2 0 5 5 9 -6 28 -31 55 -22 23 -26 31 -10 17 15 -14 46 -47 69 -75z
m114 -81 c3 -8 1 -20 -4 -25 -12 -12 -48 14 -39 29 10 17 36 15 43 -4z m-17
-60 c0 -2 -9 0 -20 6 -11 6 -20 13 -20 16 0 2 9 0 20 -6 11 -6 20 -13 20 -16z"/>
<path d="M4066 6504 c-9 -22 13 -46 38 -42 24 4 34 37 14 49 -21 14 -45 10
-52 -7z"/>
<path d="M4609 6314 c-9 -11 -10 -20 -2 -32 14 -22 43 -22 57 1 9 15 7 21 -8
33 -25 18 -31 18 -47 -2z"/>
<path d="M4616 5832 c-2 -4 12 -6 32 -4 56 5 62 10 15 11 -23 1 -44 -3 -47 -7z"/>
<path d="M4733 5833 c9 -2 23 -2 30 0 6 3 -1 5 -18 5 -16 0 -22 -2 -12 -5z"/>
<path d="M4460 5990 c0 -5 5 -10 11 -10 5 0 7 5 4 10 -3 6 -8 10 -11 10 -2 0
-4 -4 -4 -10z"/>
<path d="M4278 6103 c7 -3 16 -2 19 1 4 3 -2 6 -13 5 -11 0 -14 -3 -6 -6z"/>
<path d="M4335 6083 c3 -7 8 -23 10 -34 6 -29 15 -37 15 -13 0 11 -7 29 -16
40 -8 10 -13 13 -9 7z"/>
<path d="M4257 6062 c-14 -16 -14 -20 1 -56 l17 -38 25 21 25 22 -24 -7 c-15
-4 -26 -1 -32 7 -10 18 9 52 26 45 8 -3 17 -1 20 3 3 5 -2 12 -11 15 -24 9
-29 8 -47 -12z"/>
<path d="M3573 5973 c9 -2 23 -2 30 0 6 3 -1 5 -18 5 -16 0 -22 -2 -12 -5z"/>
<path d="M3513 5963 c9 -2 23 -2 30 0 6 3 -1 5 -18 5 -16 0 -22 -2 -12 -5z"/>
<path d="M3468 5953 c7 -3 16 -2 19 1 4 3 -2 6 -13 5 -11 0 -14 -3 -6 -6z"/>
<path d="M3600 5948 c-67 -7 -248 -44 -279 -56 -15 -6 -16 -11 -7 -33 l11 -25
66 21 c45 14 64 25 61 34 -4 12 14 31 31 31 4 0 7 -9 7 -21 0 -17 5 -20 23
-16 12 3 43 9 70 12 37 6 47 11 47 26 0 25 17 24 25 -1 3 -11 13 -20 22 -20
11 0 13 4 5 13 -5 6 -11 19 -13 27 -3 13 -15 14 -69 8z"/>
<path d="M3418 5943 c7 -3 16 -2 19 1 4 3 -2 6 -13 5 -11 0 -14 -3 -6 -6z"/>
<path d="M3345 5930 c-25 -11 1 -11 35 0 20 6 21 8 5 8 -11 0 -29 -3 -40 -8z"/>
<path d="M3298 5913 c7 -3 16 -2 19 1 4 3 -2 6 -13 5 -11 0 -14 -3 -6 -6z"/>
<path d="M3175 5880 c-13 -5 -14 -9 -5 -9 8 0 24 4 35 9 13 5 14 9 5 9 -8 0
-24 -4 -35 -9z"/>
<path d="M3190 5853 c-41 -15 -70 -28 -64 -30 7 -2 10 -12 7 -22 -4 -14 9 -21
73 -40 117 -34 171 -66 252 -147 73 -74 83 -79 141 -68 l31 7 0 155 0 155 -71
-7 c-38 -3 -128 -22 -200 -40 -98 -26 -129 -31 -129 -21 0 7 15 17 33 20 45
10 48 13 35 40 -14 30 -14 30 -108 -2z m308 -139 c2 -1 -1 -5 -7 -8 -5 -4 -15
4 -22 16 -12 22 -11 22 7 8 10 -8 20 -15 22 -16z m122 6 c0 -5 -9 -10 -21 -10
-11 0 -17 5 -14 10 3 6 13 10 21 10 8 0 14 -4 14 -10z m-160 -10 c0 -5 -4 -10
-10 -10 -5 0 -10 5 -10 10 0 6 5 10 10 10 6 0 10 -4 10 -10z"/>
<path d="M3070 5840 c-8 -5 -10 -10 -5 -10 6 0 17 5 25 10 8 5 11 10 5 10 -5
0 -17 -5 -25 -10z"/>
<path d="M2985 5809 c-54 -22 -75 -36 -35 -24 37 12 107 44 95 44 -5 0 -32 -9
-60 -20z"/>
<path d="M3040 5790 c6 -4 -7 -12 -29 -20 -21 -7 -43 -10 -49 -6 -6 3 -8 -2
-5 -13 4 -16 0 -18 -23 -13 -24 4 -26 2 -22 -16 5 -18 3 -19 -12 -10 -14 9
-30 4 -84 -27 -36 -22 -66 -42 -66 -45 0 -3 6 -14 13 -24 12 -17 20 -14 113
38 90 50 144 69 144 50 0 -17 -113 -216 -125 -220 -18 -7 -64 18 -94 50 -14
14 -28 26 -31 26 -13 0 -160 -111 -160 -121 0 -5 10 -9 23 -9 12 0 76 -9 142
-20 120 -20 120 -20 163 -65 l44 -45 36 20 37 21 2 137 c1 118 5 149 28 220
15 46 24 86 21 89 -3 3 -21 7 -41 8 -20 1 -31 -1 -25 -5z m10 -60 c0 -5 -4
-10 -10 -10 -5 0 -10 5 -10 10 0 6 5 10 10 10 6 0 10 -4 10 -10z m-37 -170
c-3 -12 -8 -19 -11 -16 -5 6 5 36 12 36 2 0 2 -9 -1 -20z"/>
<path d="M3245 5699 c102 -52 128 -70 193 -133 64 -62 68 -52 6 19 -54 63
-118 107 -199 135 -88 30 -88 24 0 -21z"/>
<path d="M2780 5699 c-72 -34 -76 -36 -68 -45 4 -3 39 13 80 35 86 48 80 54
-12 10z"/>
<path d="M3116 5683 c-26 -77 -16 -92 34 -54 20 16 22 22 12 34 -9 11 -9 16
-2 19 14 4 3 35 -15 42 -9 3 -19 -10 -29 -41z m25 -10 c-10 -17 -10 -16 -11 3
0 23 13 41 18 25 2 -6 -1 -18 -7 -28z"/>
<path d="M2887 5631 l-98 -58 36 -32 c20 -17 42 -31 50 -31 8 0 32 30 53 68
46 79 64 112 60 112 -2 0 -47 -26 -101 -59z"/>
<path d="M3190 5680 c-8 -5 -11 -12 -7 -16 4 -4 15 0 24 9 18 18 8 23 -17 7z"/>
<path d="M2633 5607 c-73 -51 -286 -232 -328 -279 -19 -21 -11 -16 20 13 91
83 91 75 0 -21 -50 -52 -100 -108 -112 -125 l-21 -30 22 -16 c21 -16 24 -15
108 76 80 85 85 93 70 108 -22 22 -7 35 16 14 18 -16 20 -16 35 1 15 17 15 19
0 35 -10 9 -12 17 -6 17 6 0 16 -7 23 -14 10 -13 23 -5 86 46 65 54 72 63 63
82 -10 20 -9 20 5 2 15 -18 18 -17 81 24 36 23 65 46 65 50 0 4 -8 14 -19 24
-17 16 -22 14 -97 -36 -44 -28 -112 -78 -152 -111 -40 -33 -75 -57 -78 -55 -6
7 170 150 231 189 59 37 60 38 53 44 -2 3 -32 -14 -65 -38z m-337 -384 c-4 -4
-11 -1 -16 7 -16 25 -11 35 7 17 9 -9 13 -20 9 -24z"/>
<path d="M3182 5629 c-5 -11 -11 -20 -15 -20 -22 3 -27 -1 -27 -23 0 -14 5
-28 10 -31 6 -3 10 0 10 8 0 8 6 17 14 20 17 7 39 67 25 67 -5 0 -13 -9 -17
-21z"/>
<path d="M3220 5641 c0 -5 12 -14 28 -20 l27 -11 -28 5 c-28 6 -28 5 -11 -20
20 -31 30 -32 38 -2 4 15 0 27 -15 40 -23 19 -39 22 -39 8z"/>
<path d="M3294 5605 c-8 -19 -14 -45 -14 -58 0 -13 -3 -27 -7 -31 -4 -3 -8
-17 -9 -29 -2 -12 0 -16 2 -9 3 6 11 9 16 5 7 -4 9 1 6 15 -4 13 0 23 9 26 8
3 11 2 8 -3 -3 -5 -1 -12 5 -16 5 -3 10 -1 10 4 0 6 11 11 25 11 14 0 25 5 25
10 0 6 -12 8 -27 4 -18 -4 -24 -2 -15 3 7 6 10 18 6 29 -5 16 -4 16 5 4 10
-13 12 -13 21 0 16 24 12 34 -21 52 l-30 18 -15 -35z m31 5 c3 -5 1 -10 -4
-10 -6 0 -11 5 -11 10 0 6 2 10 4 10 3 0 8 -4 11 -10z"/>
<path d="M3090 5569 c0 -19 -3 -50 -6 -70 -3 -21 -2 -39 5 -43 6 -4 13 9 17
31 9 52 12 55 36 38 20 -14 23 -12 45 23 20 32 23 34 17 10 -5 -23 -3 -26 15
-21 33 8 36 24 11 45 -23 19 -23 19 -43 -12 -10 -16 -23 -30 -29 -30 -5 0 -23
14 -39 32 l-30 31 1 -34z"/>
<path d="M3380 5550 c0 -13 11 -13 30 0 12 8 11 10 -7 10 -13 0 -23 -4 -23
-10z"/>
<path d="M3223 5525 c-24 -10 -33 -20 -32 -37 1 -17 3 -18 6 -6 2 10 15 21 28
24 13 3 26 12 29 20 3 8 4 14 3 14 -1 -1 -17 -7 -34 -15z"/>
<path d="M3120 5501 c0 -12 6 -21 16 -21 9 0 14 7 12 17 -5 25 -28 28 -28 4z"/>
<path d="M3297 5477 c-3 -8 1 -14 8 -14 7 0 11 6 8 14 -3 7 -6 13 -8 13 -2 0
-5 -6 -8 -13z"/>
<path d="M3210 5452 c0 -5 7 -13 16 -16 10 -4 14 -1 12 6 -5 15 -28 23 -28 10z"/>
<path d="M3250 5450 c0 -5 5 -10 11 -10 5 0 7 5 4 10 -3 6 -8 10 -11 10 -2 0
-4 -4 -4 -10z"/>
<path d="M3153 5424 c-7 -19 0 -26 21 -18 20 8 21 20 1 28 -9 3 -18 -1 -22
-10z"/>
<path d="M2511 5374 l-62 -56 68 -69 c37 -38 70 -74 71 -79 9 -25 -18 -4 -76
60 -35 39 -69 70 -75 70 -35 0 -327 -349 -327 -391 0 -6 39 -7 105 -3 76 5
105 4 105 -5 0 -7 -24 -11 -68 -11 -38 0 -72 -3 -76 -7 -8 -8 222 -133 247
-133 24 0 22 8 -17 73 -19 31 -41 78 -49 104 -16 50 -33 205 -24 220 8 13 290
-6 299 -20 4 -7 8 -36 8 -66 l0 -53 65 68 c35 38 64 76 65 85 0 8 -13 35 -28
60 -44 68 -152 209 -161 209 -4 0 -36 -25 -70 -56z"/>
<path d="M3127 5424 c-4 -4 -7 -14 -7 -23 0 -11 3 -12 11 -4 6 6 10 16 7 23
-2 6 -7 8 -11 4z"/>
<path d="M3090 5390 c0 -11 4 -20 9 -20 5 0 7 9 4 20 -3 11 -7 20 -9 20 -2 0
-4 -9 -4 -20z"/>
<path d="M2658 5388 c17 -22 59 -28 73 -12 9 11 8 14 -4 14 -8 0 -30 3 -48 7
-30 6 -32 5 -21 -9z"/>
<path d="M2759 5368 c-7 -68 0 -118 16 -118 19 0 22 96 3 103 -10 4 -10 6 0 6
17 1 15 21 -3 21 -8 0 -16 -6 -16 -12z"/>
<path d="M2810 5310 c0 -53 2 -60 20 -60 18 0 20 7 20 60 0 53 -2 60 -20 60
-18 0 -20 -7 -20 -60z"/>
<path d="M2870 5306 c0 -30 4 -57 9 -60 5 -3 22 4 37 16 16 12 31 23 33 24 1
2 -9 19 -24 38 -40 52 -55 47 -55 -18z"/>
<path d="M2706 5332 c-3 -5 6 -21 19 -38 24 -28 24 -28 25 -6 0 13 -4 20 -10
17 -5 -3 -10 3 -10 14 0 21 -14 28 -24 13z"/>
<path d="M2782 5222 c-10 -7 -8 -12 6 -25 16 -15 20 -15 40 -1 12 8 22 19 22
25 0 11 -50 12 -68 1z"/>
<path d="M2354 5103 c3 -15 8 -58 12 -95 10 -102 11 -103 126 -74 53 13 101
27 107 31 12 7 15 141 4 148 -5 3 -64 8 -132 12 l-123 7 6 -29z m51 -20 l28
-38 -31 29 c-18 17 -32 33 -32 38 0 15 7 9 35 -29z m174 -4 c-19 -12 -24 -2
-8 17 9 11 14 13 17 4 3 -7 -2 -16 -9 -21z m-115 -56 c-15 -3 -27 -19 -39 -49
-9 -25 -19 -43 -22 -40 -3 3 3 25 13 50 16 38 23 46 44 45 22 -2 22 -2 4 -6z
m66 -18 c17 -9 30 -18 30 -21 0 -4 -59 23 -69 32 -10 9 13 3 39 -11z"/>
<path d="M3302 5040 c-79 -37 -190 -109 -262 -168 -64 -53 -220 -204 -220
-213 0 -3 17 -18 37 -32 l37 -26 74 80 c91 97 225 195 352 257 52 25 96 46 98
47 7 6 -32 85 -42 85 -6 0 -39 -13 -74 -30z"/>
<path d="M3014 5019 c-22 -17 -41 -32 -43 -34 -2 -2 11 -22 29 -44 l32 -41 44
31 c24 16 44 32 44 35 0 9 -54 84 -61 84 -3 0 -24 -14 -45 -31z"/>
<path d="M2835 4869 c-87 -84 -147 -154 -189 -220 -16 -25 -16 -26 30 -58 25
-18 46 -32 48 -30 2 2 17 24 34 49 17 25 80 95 141 155 61 61 111 114 111 118
0 16 -53 77 -67 77 -7 0 -56 -41 -108 -91z"/>
<path d="M2490 4905 c-19 -7 -47 -14 -62 -14 -16 -1 -28 -3 -28 -6 0 -13 41
-85 48 -85 5 0 27 27 50 60 46 64 45 66 -8 45z"/>
<path d="M2750 4560 c-52 -82 -120 -215 -120 -236 0 -10 90 -40 94 -32 1 2 19
41 41 87 22 47 57 112 78 145 l39 60 -24 18 c-54 43 -53 43 -108 -42z"/>
<path d="M2592 4555 c-12 -25 -22 -47 -22 -50 0 -4 88 -45 96 -45 4 0 44 76
44 83 0 7 -76 57 -86 57 -6 0 -20 -20 -32 -45z"/>
<path d="M2524 4413 c-36 -78 -76 -212 -67 -225 2 -5 13 -8 24 -8 31 0 161
-31 155 -37 -3 -3 -46 2 -96 12 -51 9 -94 15 -95 13 -7 -7 -24 -134 -27 -203
l-3 -70 121 -3 121 -3 7 93 c5 81 32 220 51 269 5 13 -4 20 -41 33 -25 8 -50
13 -55 11 -4 -3 -13 -30 -20 -61 -11 -51 -29 -82 -29 -52 0 26 41 161 61 200
11 22 18 45 16 51 -2 7 -23 22 -46 35 l-41 24 -36 -79z"/>
<path d="M2506 4443 c-6 -14 -5 -15 5 -6 7 7 10 15 7 18 -3 3 -9 -2 -12 -12z"/>
<path d="M2471 4365 c-12 -31 -21 -61 -20 -68 0 -7 11 17 24 53 13 35 22 66
20 68 -1 2 -12 -22 -24 -53z"/>
<path d="M2431 4244 c-33 -129 -41 -165 -40 -190 1 -28 1 -27 10 6 21 86 47
215 44 219 -2 1 -8 -14 -14 -35z"/>
<path d="M1826 4084 c-12 -88 -10 -90 44 -34 28 28 50 53 50 55 0 1 -12 6 -27
9 -16 4 -35 9 -44 12 -13 3 -18 -6 -23 -42z"/>
<path d="M1912 4073 c-13 -9 -39 -37 -58 -61 -34 -45 -34 -45 -34 -155 l0
-109 51 -64 c28 -35 53 -64 55 -64 21 0 134 75 134 88 0 4 -24 19 -53 35 -29
15 -75 47 -102 72 l-49 45 30 31 c16 17 62 51 102 76 39 26 72 50 72 55 0 9
-100 68 -115 67 -5 0 -21 -7 -33 -16z"/>
<path d="M1978 3935 c-49 -36 -88 -69 -88 -75 0 -13 94 -87 143 -111 47 -24
52 -21 103 62 21 35 32 64 28 71 -21 35 -86 118 -92 118 -4 0 -46 -29 -94 -65z
m100 -1 c-4 -3 -12 5 -18 18 -12 22 -12 22 6 6 10 -10 15 -20 12 -24z m-15
-71 c-7 -2 -19 -2 -25 0 -7 3 -2 5 12 5 14 0 19 -2 13 -5z m47 -7 c0 -24 -17
-28 -23 -6 -3 13 0 20 9 20 8 0 14 -6 14 -14z m-38 -68 c-7 -7 -12 -8 -12 -2
0 14 12 26 19 19 2 -3 -1 -11 -7 -17z"/>
<path d="M1833 3658 c7 -74 11 -80 45 -66 15 7 29 13 30 14 2 1 -15 26 -39 56
l-42 53 6 -57z"/>
<path d="M2625 3611 c-22 -5 -29 -12 -27 -26 4 -28 42 -155 46 -155 2 0 23 7
46 15 23 8 45 15 49 15 14 -1 -43 -40 -58 -40 -10 0 -20 -3 -23 -6 -7 -7 20
-92 32 -99 10 -6 100 33 100 43 0 4 -15 46 -34 92 -18 47 -40 103 -47 125 -16
43 -29 49 -84 36z"/>
<path d="M2175 3550 c-10 -19 -37 -68 -61 -107 -24 -40 -44 -77 -44 -82 0 -5
-6 -16 -14 -23 -16 -16 -59 -98 -54 -103 5 -5 204 -43 256 -48 28 -3 42 -1 42
6 0 7 4 6 10 -3 17 -27 22 -2 5 30 -25 47 -83 211 -104 293 l-18 71 -18 -34z
m13 -45 c-3 -3 -9 2 -12 12 -6 14 -5 15 5 6 7 -7 10 -15 7 -18z m65 -190 c-3
-9 -8 -14 -10 -11 -3 3 -2 9 2 15 9 16 15 13 8 -4z m-28 -15 c3 -5 1 -10 -4
-10 -6 0 -11 5 -11 10 0 6 2 10 4 10 3 0 8 -4 11 -10z m50 -28 c-3 -3 -11 0
-18 7 -9 10 -8 11 6 5 10 -3 15 -9 12 -12z m-68 -24 c-3 -8 -6 -5 -6 6 -1 11
2 17 5 13 3 -3 4 -12 1 -19z"/>
<path d="M1995 3468 c-27 -17 -64 -37 -82 -44 l-31 -14 15 -57 c23 -89 27 -92
53 -28 13 31 43 84 67 116 23 32 40 59 35 59 -4 0 -29 -14 -57 -32z"/>
<path d="M2745 3313 c-16 -8 -32 -17 -34 -19 -9 -9 84 -161 119 -194 3 -3 11
-17 19 -32 26 -50 152 -166 252 -232 l27 -17 26 45 c14 24 26 47 26 49 0 3
-26 24 -57 48 -89 67 -205 192 -264 284 -30 47 -61 85 -69 84 -8 0 -28 -7 -45
-16z"/>
<path d="M1963 3168 c27 -60 37 -65 152 -67 78 -1 78 -2 -22 -64 l-52 -32 18
-41 c10 -22 30 -59 45 -82 26 -41 27 -42 84 -42 31 0 75 5 97 10 22 5 41 7 44
5 8 -9 -56 -26 -122 -33 l-70 -7 77 -115 c65 -96 126 -174 202 -258 10 -12 16
-11 40 4 47 31 96 82 89 94 -3 6 3 10 16 10 l22 0 -23 -27 c-13 -16 -44 -47
-69 -71 l-46 -43 70 -64 c38 -36 72 -65 76 -65 7 0 156 226 182 277 l17 31
-78 73 -77 72 -3 -62 -3 -61 -144 0 -145 0 0 48 c0 89 52 253 97 303 12 15 9
26 -29 100 -24 46 -43 85 -43 86 0 0 -52 9 -115 18 -63 9 -151 25 -195 36
-120 28 -119 29 -92 -33z"/>
<path d="M2694 3195 c-10 -8 -26 -15 -34 -15 -8 0 -22 -4 -30 -10 -12 -7 -4
-25 45 -96 58 -85 193 -237 244 -273 l26 -19 39 45 39 44 -90 87 c-49 48 -115
124 -147 170 -32 45 -61 82 -65 82 -4 0 -16 -7 -27 -15z"/>
<path d="M2012 3060 c14 -42 22 -44 64 -15 20 14 41 25 45 25 5 0 9 5 9 10 0
6 -28 10 -64 10 l-65 0 11 -30z"/>
<path d="M2448 2943 c-15 -19 -41 -74 -36 -78 6 -5 118 -16 118 -11 0 5 -62
106 -65 106 -1 0 -8 -8 -17 -17z"/>
<path d="M2996 2815 c-42 -51 -41 -58 20 -96 39 -24 54 -18 74 31 7 17 16 30
21 30 16 0 9 -23 -17 -57 -28 -37 -28 -39 28 -72 l37 -22 19 38 c37 72 36 79
-5 104 -21 13 -41 23 -45 21 -5 -1 -8 2 -8 7 0 7 -73 61 -83 61 -1 0 -20 -20
-41 -45z"/>
<path d="M2400 2838 c0 -5 5 -19 11 -31 9 -20 9 -21 -4 -4 -9 11 -18 14 -21 8
-11 -17 -30 -171 -22 -178 4 -4 16 -1 28 6 11 7 17 8 13 2 -4 -8 25 -11 94
-11 117 0 114 -2 109 110 l-3 65 -50 13 c-83 20 -155 30 -155 20z m113 -105
c3 -5 -6 -9 -19 -9 -13 -1 -21 2 -18 7 6 11 31 12 37 2z"/>
<path d="M2800 2541 c-15 -29 -13 -31 23 -31 45 0 51 9 23 31 -30 24 -33 24
-46 0z"/>
<path d="M2879 2470 c-1 -53 -15 -108 -19 -75 -2 11 -2 37 -1 58 l3 37 -41 0
c-30 0 -41 -4 -41 -15 0 -9 -9 -15 -25 -15 -19 0 -25 -5 -25 -22 0 -26 35 -88
49 -88 6 0 46 12 91 26 81 25 81 25 78 57 -2 21 -11 35 -27 43 -13 7 -28 18
-32 26 -6 8 -9 -3 -10 -32z m-75 -37 c-4 -27 -13 -55 -21 -63 -14 -13 -14 -13
-4 7 6 12 11 33 11 47 0 24 9 56 16 56 2 0 1 -21 -2 -47z"/>
<path d="M2695 2389 c-10 -19 -24 -42 -33 -52 -23 -26 -11 -29 44 -9 l50 17
-22 39 -22 39 -17 -34z"/>
<path d="M3083 2248 c5 -110 33 -257 52 -276 3 -4 45 13 92 37 64 33 107 65
171 128 50 48 82 87 76 91 -5 5 -29 14 -54 21 -25 7 -109 37 -186 67 -78 30
-145 54 -149 54 -4 0 -5 -55 -2 -122z m71 83 c4 -5 -3 -7 -14 -4 -23 6 -26 13
-6 13 8 0 17 -4 20 -9z m233 -103 c-3 -8 -6 -5 -6 6 -1 11 2 17 5 13 3 -3 4
-12 1 -19z m-239 -11 c-30 -24 -37 -47 -15 -47 7 0 19 6 26 13 11 10 11 8 0
-10 -15 -25 -43 -17 -52 16 -3 14 2 21 19 25 13 4 24 11 24 16 0 6 6 10 13 10
6 -1 0 -11 -15 -23z m62 -41 c0 -3 -4 -8 -10 -11 -5 -3 -10 -1 -10 4 0 6 5 11
10 11 6 0 10 -2 10 -4z m150 -25 c0 -16 -28 -33 -35 -21 -3 5 1 10 10 10 9 0
13 5 10 10 -3 6 -1 10 4 10 6 0 11 -4 11 -9z m-50 -51 c-24 -15 -37 -11 -16 5
11 8 22 12 25 9 3 -3 -1 -9 -9 -14z"/>
<path d="M3453 2161 c-66 -73 -143 -133 -234 -181 l-72 -38 37 -12 c35 -11 43
-10 118 25 92 42 130 50 173 36 26 -8 23 -9 -25 -7 -43 1 -70 -6 -128 -33 -46
-22 -68 -37 -60 -42 17 -9 260 -66 321 -74 l47 -7 0 91 c0 113 -7 115 -95 27
-42 -41 -59 -54 -50 -36 17 33 112 120 131 120 11 0 14 19 14 84 0 94 3 90
-80 100 -45 6 -46 5 -97 -53z"/>
<path d="M5390 5869 c0 -17 4 -28 10 -24 6 3 10 17 10 31 0 13 -4 24 -10 24
-5 0 -10 -14 -10 -31z"/>
<path d="M5503 5874 c-7 -18 17 -38 31 -24 11 11 1 40 -14 40 -6 0 -13 -7 -17
-16z"/>
<path d="M5440 5821 c0 -5 5 -13 10 -16 6 -3 10 -2 10 4 0 5 -4 13 -10 16 -5
3 -10 2 -10 -4z"/>
<path d="M5480 5820 c0 -5 5 -10 11 -10 5 0 7 5 4 10 -3 6 -8 10 -11 10 -2 0
-4 -4 -4 -10z"/>
<path d="M1780 5786 c0 -9 30 -14 35 -6 4 6 -3 10 -14 10 -12 0 -21 -2 -21 -4z"/>
<path d="M1782 5715 c0 -16 2 -22 5 -12 2 9 2 23 0 30 -3 6 -5 -1 -5 -18z"/>
<path d="M1780 5664 c0 -18 24 -43 50 -52 36 -13 40 0 5 16 -14 7 -28 19 -31
27 -6 14 -24 21 -24 9z"/>
<path d="M1962 5640 c-16 -26 -15 -29 8 -23 11 3 20 14 20 24 0 25 -12 24 -28
-1z"/>
<path d="M3724 5688 c-3 -4 4 -8 15 -8 12 0 21 4 21 8 0 5 -7 9 -15 9 -9 0
-18 -4 -21 -9z"/>
<path d="M3960 5612 c-36 -29 -39 -94 -6 -127 51 -51 136 -17 136 54 0 68 -80
113 -130 73z m10 -6 c0 -2 -8 -10 -17 -17 -16 -13 -17 -12 -4 4 13 16 21 21
21 13z m69 -25 c13 -9 20 -65 9 -76 -2 -3 -19 -8 -37 -11 l-33 -7 4 42 c2 22
0 41 -4 41 -5 0 -8 -15 -8 -32 0 -23 -3 -29 -9 -19 -9 15 -5 37 12 59 11 14
46 16 66 3z"/>
<path d="M2980 5176 c0 -2 8 -10 18 -17 15 -13 16 -12 3 4 -13 16 -21 21 -21
13z"/>
<path d="M5874 4538 l-29 -33 33 29 c17 17 32 31 32 33 0 8 -8 1 -36 -29z"/>
<path d="M6069 4925 c-54 -29 -60 -107 -12 -145 80 -62 198 40 135 116 -37 44
-78 54 -123 29z m79 -41 c30 -21 28 -58 -4 -83 -34 -27 -49 -26 -68 1 -21 30
-20 54 4 78 24 24 38 25 68 4z"/>
<path d="M3540 4865 c0 -14 -3 -15 -14 -6 -11 9 -15 7 -20 -11 -5 -19 -8 -20
-16 -8 -6 10 -10 11 -10 3 0 -7 -4 -13 -10 -13 -5 0 -7 8 -5 18 3 9 -3 0 -13
-20 -23 -48 -37 -61 -28 -28 6 24 6 24 -9 -3 -9 -15 -20 -25 -25 -22 -6 4 -10
3 -10 -2 0 -4 -14 -14 -30 -21 -18 -8 -27 -18 -24 -25 5 -8 2 -8 -6 0 -11 10
-17 8 -32 -15 -10 -15 -18 -23 -18 -18 0 5 -9 1 -20 -9 -39 -35 -8 -34 38 1
26 20 61 42 77 50 66 32 85 46 85 61 0 13 3 13 15 3 12 -10 15 -9 15 6 0 13 3
15 8 7 14 -22 49 -3 56 29 3 17 4 33 1 36 -3 3 -5 -3 -5 -13z m-270 -179 c0
-2 -8 -10 -17 -17 -16 -13 -17 -12 -4 4 13 16 21 21 21 13z"/>
<path d="M3315 4780 c-15 -17 -16 -20 -3 -20 19 0 42 26 30 34 -5 3 -17 -3
-27 -14z"/>
<path d="M3206 4647 c3 -10 9 -15 12 -12 3 3 0 11 -7 18 -10 9 -11 8 -5 -6z"/>
<path d="M2167 4783 c-4 -3 -7 -11 -7 -17 0 -6 5 -5 12 2 6 6 9 14 7 17 -3 3
-9 2 -12 -2z"/>
<path d="M2200 4531 c0 -4 22 -6 49 -3 48 4 50 4 45 -19 -4 -22 -3 -22 5 -4
16 33 13 35 -44 35 -30 0 -55 -4 -55 -9z"/>
<path d="M2071 4515 c-35 -8 -66 -16 -68 -19 -6 -6 169 -366 179 -366 15 0 8
42 -12 67 -22 28 -26 53 -9 53 5 0 8 -4 4 -10 -7 -11 15 -50 28 -50 5 0 7 6 4
13 -2 6 -1 21 3 32 4 11 3 29 -3 40 -9 17 -8 18 5 8 13 -11 17 -4 32 48 9 33
14 64 11 69 -3 4 2 10 10 14 29 11 15 26 -25 26 -44 0 -51 -13 -20 -32 11 -7
20 -17 20 -22 0 -5 -13 3 -30 19 -16 16 -30 32 -30 37 0 4 20 8 45 8 31 0 47
5 51 15 4 8 10 13 14 10 5 -3 6 4 3 14 -5 21 -36 33 -60 24 -11 -4 -10 -10 8
-29 12 -13 17 -24 11 -24 -6 0 -14 5 -17 10 -4 6 -10 8 -15 5 -4 -3 -7 3 -6
13 1 11 -7 18 -23 20 -24 4 -24 3 -8 -22 22 -33 8 -34 -20 -2 l-21 24 32 10
31 10 -30 0 c-16 0 -59 -6 -94 -13z m49 -35 c13 -24 12 -25 -7 -7 -11 9 -28
17 -39 18 -15 1 -13 3 6 8 14 4 26 7 26 7 1 -1 7 -12 14 -26z m-45 -20 c3 -5
1 -10 -4 -10 -6 0 -11 5 -11 10 0 6 2 10 4 10 3 0 8 -4 11 -10z m142 -132 c-3
-7 -5 -2 -5 12 0 14 2 19 5 13 2 -7 2 -19 0 -25z"/>
<path d="M6212 4541 c-18 -11 -11 -51 11 -65 36 -23 73 27 42 58 -18 18 -33
20 -53 7z"/>
<path d="M1360 4410 c-27 -27 -25 -56 5 -85 29 -30 45 -31 79 -4 32 25 34 61
4 89 -28 25 -62 26 -88 0z"/>
<path d="M3827 4053 c-6 -58 2 -81 22 -69 17 11 14 126 -3 126 -9 0 -15 -19
-19 -57z"/>
<path d="M3730 3972 c0 -16 68 -74 79 -68 15 9 14 49 -1 64 -13 13 -78 17 -78
4z"/>
<path d="M3877 3962 c-23 -25 -12 -65 13 -52 10 6 28 23 40 40 l21 30 -29 0
c-16 0 -36 -8 -45 -18z"/>
<path d="M3937 3912 c-21 -21 -34 -41 -31 -45 4 -4 27 -7 52 -7 l44 0 -7 38
c-3 20 -10 40 -14 44 -4 5 -24 -9 -44 -30z"/>
<path d="M3822 3878 c-19 -19 -14 -28 18 -28 17 0 30 4 30 8 0 9 -21 32 -30
32 -3 0 -11 -5 -18 -12z"/>
<path d="M3810 3832 c0 -5 6 -17 14 -27 12 -16 16 -17 30 -6 26 22 19 41 -14
41 -16 0 -30 -4 -30 -8z"/>
<path d="M3943 3833 c-38 -5 -44 -30 -15 -56 26 -24 29 -22 51 23 12 25 15 39
8 38 -7 0 -27 -3 -44 -5z"/>
<path d="M3767 3766 l-27 -35 23 -27 23 -27 22 28 c26 33 27 43 4 72 l-17 23
-28 -34z"/>
<path d="M3867 3773 c-12 -11 -8 -30 14 -57 17 -21 24 -24 35 -15 19 16 18 43
-4 62 -20 18 -34 21 -45 10z"/>
<path d="M3822 3690 c-27 -26 -27 -26 1 -73 l23 -37 21 44 22 44 -23 21 -22
21 -22 -20z"/>
<path d="M6113 4023 c-7 -2 -13 -17 -13 -33 0 -51 48 -66 76 -25 12 18 11 24
-2 43 -15 21 -35 26 -61 15z"/>
<path d="M2250 3864 c0 -17 22 -14 28 4 2 7 -3 12 -12 12 -9 0 -16 -7 -16 -16z"/>
<path d="M2301 3864 c0 -11 3 -14 6 -6 3 7 2 16 -1 19 -3 4 -6 -2 -5 -13z"/>
<path d="M6020 3801 c0 -6 4 -13 10 -16 6 -3 7 1 4 9 -7 18 -14 21 -14 7z"/>
<path d="M2280 3790 c0 -5 4 -10 9 -10 6 0 13 5 16 10 3 6 -1 10 -9 10 -9 0
-16 -4 -16 -10z"/>
<path d="M5967 3366 c-9 -23 4 -56 22 -56 22 0 41 19 41 41 0 28 -53 41 -63
15z m28 -16 c3 -5 1 -10 -4 -10 -6 0 -11 5 -11 10 0 6 2 10 4 10 3 0 8 -4 11
-10z"/>
<path d="M5913 3163 c-7 -2 -13 -9 -13 -14 0 -6 5 -7 10 -4 6 3 10 1 10 -4 0
-6 -4 -11 -10 -11 -15 0 -12 -30 4 -36 22 -8 56 14 56 36 0 16 -29 42 -42 39
-2 0 -9 -3 -15 -6z"/>
<path d="M5580 2441 c-13 -25 -4 -48 21 -56 22 -7 49 10 49 31 0 17 -28 44
-45 44 -8 0 -19 -9 -25 -19z m40 -15 c0 -3 -4 -8 -10 -11 -5 -3 -10 -1 -10 4
0 6 5 11 10 11 6 0 10 -2 10 -4z"/>
<path d="M4832 1818 c5 -15 28 -18 29 -3 0 6 -7 12 -17 13 -10 3 -15 -1 -12
-10z"/>
<path d="M4020 1210 c0 -5 14 -10 31 -10 17 0 28 4 24 10 -3 6 -17 10 -31 10
-13 0 -24 -4 -24 -10z"/>
</g>
</svg>
